<svg width="886" height="640" viewBox="0 0 886 640" fill="none" xmlns="http://www.w3.org/2000/svg">
<path d="M878 91.4746L881.932 99.9485L885.864 96.0163L881.932 90L880.123 90.5505C879.946 90.6053 879.772 90.671 879.602 90.7471L878 91.4746Z" fill="white"/>
<path d="M215.899 619.276C220.926 619.276 225.002 615.099 225.002 609.947C225.002 604.794 220.926 600.617 215.899 600.617C210.871 600.617 206.796 604.794 206.796 609.947C206.796 615.099 210.871 619.276 215.899 619.276Z" fill="#DBDBDB"/>
<path d="M810.645 627.363H769.635V609.822H796.012C799.893 609.822 803.615 611.529 806.359 614.567C809.103 617.605 810.645 621.725 810.645 626.022V627.363Z" fill="#2F2E41"/>
<path d="M136.959 85.5258H9.83055C4.40129 85.5258 0 89.9271 0 95.3563V343.027C0 348.457 4.40129 352.858 9.83055 352.858H136.959C142.389 352.858 146.79 348.457 146.79 343.027V95.3563C146.79 89.9271 142.389 85.5258 136.959 85.5258Z" fill="url(#paint0_linear)"/>
<path d="M133.578 89.9201H13.2123C7.783 89.9201 3.38171 94.3214 3.38171 99.7506V336.814C3.38171 342.244 7.783 346.645 13.2123 346.645H133.578C139.007 346.645 143.408 342.244 143.408 336.814V99.7506C143.408 94.3214 139.007 89.9201 133.578 89.9201Z" fill="white"/>
<path d="M127.998 107.588L19.5864 107.74L19.8781 316.658L128.289 316.507L127.998 107.588Z" fill="#E6E6E6"/>
<path d="M74.1073 340.49C78.8796 340.484 82.7428 336.513 82.7359 331.621C82.7291 326.729 78.8548 322.769 74.0825 322.776C69.3102 322.782 65.447 326.753 65.4538 331.645C65.4607 336.537 69.3349 340.497 74.1073 340.49Z" fill="#DBDBDB"/>
<path d="M57.3639 99.7048C58.3195 99.7034 59.093 98.9101 59.0917 97.9329C59.0903 96.9556 58.3145 96.1644 57.359 96.1658C56.4035 96.1671 55.6299 96.9604 55.6313 97.9377C55.6326 98.915 56.4084 99.7061 57.3639 99.7048Z" fill="#DBDBDB"/>
<path d="M90.9504 96.5612L66.1185 96.5959C65.5756 96.5967 65.1361 97.0374 65.1368 97.5803L65.1378 98.2685C65.1385 98.8114 65.5793 99.2509 66.1222 99.2502L90.9541 99.2155C91.4971 99.2147 91.9366 98.774 91.9358 98.2311L91.9349 97.5429C91.9341 97 91.4934 96.5605 90.9504 96.5612Z" fill="#DBDBDB"/>
<path d="M104.627 228.816H43.2446V293.265H104.627V228.816Z" fill="url(#paint1_linear)"/>
<path d="M101.962 231.618H45.9185V290.463H101.962V231.618Z" fill="#6C63FF"/>
<g opacity="0.5">
<path opacity="0.5" d="M78.1823 258.288V257.177H81.1315V251.485C82.0248 250.129 82.5394 248.559 82.6221 246.937C82.7048 245.315 82.3526 243.7 81.6019 242.26C80.8512 240.82 79.7292 239.607 78.3522 238.746C76.9752 237.885 75.3931 237.407 73.7697 237.363C72.1463 237.319 70.5405 237.709 69.1186 238.494C67.6967 239.278 66.5102 240.429 65.682 241.825C64.8539 243.222 64.4141 244.815 64.4082 246.439C64.4022 248.063 64.8304 249.66 65.6484 251.063V257.177H68.9023V258.485C64.9168 259.584 61.4019 261.96 58.8964 265.248C56.3909 268.537 55.0332 272.556 55.0314 276.691V293.265H92.8692V276.691C92.8671 272.413 91.413 268.263 88.7449 264.92C86.0767 261.577 82.3527 259.239 78.1823 258.288Z" fill="url(#paint2_linear)"/>
</g>
<path d="M80.4729 246.747H66.4644V257.954H80.4729V246.747Z" fill="#F55F44"/>
<path d="M69.4921 258.544H78.3396C81.6925 258.544 84.908 259.875 87.2789 262.246C89.6497 264.617 90.9817 267.833 90.9817 271.186V290.63H56.85V271.166C56.8552 267.816 58.1894 264.606 60.5597 262.239C62.93 259.873 66.1426 258.544 69.4921 258.544Z" fill="#FDD835"/>
<path d="M74.6729 252.94H72.5003C70.7901 252.94 69.4037 254.327 69.4037 256.037V260.303C69.4037 262.013 70.7901 263.4 72.5003 263.4H74.6729C76.3831 263.4 77.7695 262.013 77.7695 260.303V256.037C77.7695 254.327 76.3831 252.94 74.6729 252.94Z" fill="#FDA57D"/>
<path d="M71.9891 263.085L73.5522 265.366L75.1939 263.085H71.9891Z" fill="#FDA57D"/>
<path opacity="0.1" d="M63.2793 271.323C63.2793 271.323 61.6179 287.858 62.6894 288.93L63.2793 271.323Z" fill="black"/>
<path opacity="0.1" d="M83.8251 271.323C83.8251 271.323 85.4864 287.858 84.4149 288.93L83.8251 271.323Z" fill="black"/>
<path opacity="0.05" d="M73.5915 258.023C75.0775 258.024 76.5248 257.549 77.7203 256.666C77.5638 255.683 77.0622 254.788 76.3056 254.141C75.549 253.495 74.5868 253.138 73.5915 253.137C72.5962 253.138 71.6339 253.495 70.8773 254.141C70.1207 254.788 69.6192 255.683 69.4626 256.666C70.6582 257.549 72.1055 258.024 73.5915 258.023Z" fill="black"/>
<path d="M73.5915 256.518C78.1466 256.518 81.8393 252.826 81.8393 248.271C81.8393 243.715 78.1466 240.023 73.5915 240.023C69.0363 240.023 65.3436 243.715 65.3436 248.271C65.3436 252.826 69.0363 256.518 73.5915 256.518Z" fill="#F55F44"/>
<path d="M73.5915 257.816C77.4408 257.816 80.5613 254.696 80.5613 250.846C80.5613 246.997 77.4408 243.876 73.5915 243.876C69.7421 243.876 66.6216 246.997 66.6216 250.846C66.6216 254.696 69.7421 257.816 73.5915 257.816Z" fill="#FDA57D"/>
<path d="M66.602 251.279C66.8735 251.279 67.0935 250.883 67.0935 250.394C67.0935 249.905 66.8735 249.509 66.602 249.509C66.3305 249.509 66.1105 249.905 66.1105 250.394C66.1105 250.883 66.3305 251.279 66.602 251.279Z" fill="#FDA57D"/>
<path d="M80.5909 251.279C80.8623 251.279 81.0824 250.883 81.0824 250.394C81.0824 249.905 80.8623 249.509 80.5909 249.509C80.3194 249.509 80.0993 249.905 80.0993 250.394C80.0993 250.883 80.3194 251.279 80.5909 251.279Z" fill="#FDA57D"/>
<path d="M121.24 121.171H26.6309V125.281H121.24V121.171Z" fill="white"/>
<path d="M121.24 129.39H26.6309V133.499H121.24V129.39Z" fill="white"/>
<path d="M80.1091 137.618H26.6309V141.727H80.1091V137.618Z" fill="white"/>
<path d="M104.784 145.846H26.6309V149.955H104.784V145.846Z" fill="white"/>
<path d="M92.4465 154.074H26.6309V158.183H92.4465V154.074Z" fill="white"/>
<path d="M121.24 162.302H26.6309V166.412H121.24V162.302Z" fill="white"/>
<path d="M113.022 174.64H30.7499V207.543H113.022V174.64Z" fill="white"/>
<path d="M611.165 340.265C611.165 340.265 624.928 434.825 705.726 466.234L542.243 466.46L378.761 466.686C459.431 435.051 472.987 340.452 472.987 340.452L611.165 340.265Z" fill="#E0E0E0"/>
<path d="M707.183 466.214L377.133 466.675L377.161 486.651L707.211 486.19L707.183 466.214Z" fill="url(#paint3_linear)"/>
<path d="M705.748 466.216L378.784 466.672L378.806 482.087L705.77 481.63L705.748 466.216Z" fill="#F5F5F5"/>
<path d="M807.55 0L275.816 0.737292C272.923 0.806858 270.177 2.0224 268.18 4.1166C266.184 6.21081 265.101 9.01222 265.169 11.9048L265.582 322.137V332.469C265.582 356.063 283.896 375.124 306.428 375.095L777.911 374.446C800.433 374.446 818.669 355.286 818.639 331.712V321.39L818.226 11.1577C818.259 9.72381 818.009 8.29756 817.49 6.96053C816.97 5.62349 816.193 4.40189 815.201 3.3656C814.21 2.32931 813.024 1.49866 811.711 0.921164C810.398 0.343664 808.984 0.0306395 807.55 0Z" fill="url(#paint4_linear)"/>
<path d="M282.127 10.3909H800.679C803.482 10.3909 806.17 11.5043 808.151 13.4861C810.133 15.468 811.247 18.156 811.247 20.9587V316.19H271.549V20.9587C271.549 19.5701 271.823 18.1951 272.355 16.9123C272.886 15.6295 273.666 14.4641 274.648 13.4827C275.63 12.5012 276.797 11.723 278.08 11.1925C279.363 10.662 280.738 10.3896 282.127 10.3909Z" fill="white"/>
<path d="M774.294 365.264L309.938 365.903C304.991 365.91 300.091 364.942 295.518 363.054C290.945 361.167 286.789 358.398 283.286 354.904C279.783 351.411 277.003 347.262 275.104 342.694C273.205 338.126 272.224 333.229 272.218 328.282V315.502L811.915 314.755V327.534C811.923 332.482 810.956 337.383 809.069 341.957C807.183 346.531 804.414 350.689 800.92 354.192C797.426 357.696 793.277 360.477 788.708 362.377C784.139 364.277 779.241 365.258 774.294 365.264Z" fill="#F5F5F5"/>
<path d="M786.602 35.1639H298.21V282.029H786.602V35.1639Z" fill="#E6E6E6"/>
<path d="M744.556 51.4433H658.106V142.219H744.556V51.4433Z" fill="url(#paint5_linear)"/>
<path d="M740.801 55.3952H661.862V138.277H740.801V55.3952Z" fill="#6C63FF"/>
<path d="M745.058 160.336H658.608V251.112H745.058V160.336Z" fill="url(#paint6_linear)"/>
<path d="M741.302 164.278H662.363V247.16H741.302V164.278Z" fill="#6C63FF"/>
<path d="M554.659 66.14H337.424V75.5871H554.659V66.14Z" fill="white"/>
<path d="M554.659 85.0245H337.424V94.4716H554.659V85.0245Z" fill="white"/>
<path d="M460.207 103.919H337.424V113.366H460.207V103.919Z" fill="white"/>
<path d="M516.881 122.803H337.424V132.25H516.881V122.803Z" fill="white"/>
<path d="M488.539 141.698H337.424V151.145H488.539V141.698Z" fill="white"/>
<path d="M554.659 160.582H337.424V170.029H554.659V160.582Z" fill="white"/>
<path d="M535.765 188.924H346.871V264.481H535.765V188.924Z" fill="white"/>
<path d="M334.75 217.284L96.0443 217.617C86.7223 217.63 79.1758 225.197 79.1889 234.519L79.7314 623.121C79.7445 632.443 87.312 639.989 96.634 639.976L335.339 639.643C344.661 639.63 352.208 632.062 352.195 622.74L351.652 234.139C351.639 224.817 344.072 217.271 334.75 217.284Z" fill="url(#paint7_linear)"/>
<path d="M333.576 249.549L98.2816 249.878L98.7762 604.121L334.07 603.793L333.576 249.549Z" fill="url(#paint8_linear)"/>
<path d="M330.885 223.669L99.9265 223.992C93.0422 224.001 87.4692 229.59 87.4788 236.474L88.0065 614.449C88.0161 621.333 93.6047 626.906 100.489 626.896L331.448 626.574C338.332 626.564 343.905 620.976 343.896 614.091L343.368 236.117C343.358 229.232 337.77 223.659 330.885 223.669Z" fill="white"/>
<path d="M326.396 254.465L105.416 254.773L105.887 592.708L326.868 592.399L326.396 254.465Z" fill="#E6E6E6"/>
<path d="M177.654 243.161C179.332 243.159 180.69 241.766 180.687 240.05C180.685 238.335 179.323 236.946 177.645 236.948C175.968 236.95 174.61 238.343 174.612 240.059C174.614 241.774 175.976 243.163 177.654 243.161Z" fill="#DBDBDB"/>
<path d="M231.538 238.112L193.573 238.165C193.16 238.165 192.826 238.5 192.827 238.913L192.829 240.525C192.829 240.938 193.164 241.272 193.577 241.271L231.543 241.218C231.955 241.217 232.289 240.882 232.289 240.47L232.286 238.858C232.286 238.445 231.951 238.111 231.538 238.112Z" fill="#DBDBDB"/>
<path d="M301.257 462.822H214.807V553.598H301.257V462.822Z" fill="url(#paint9_linear)"/>
<path d="M297.502 466.774H218.563V549.656H297.502V466.774Z" fill="#6C63FF"/>
<path d="M212.782 461.839H126.332V552.615H212.782V461.839Z" fill="url(#paint10_linear)"/>
<path d="M209.027 465.791H130.088V548.673H209.027V465.791Z" fill="#6C63FF"/>
<g opacity="0.5">
<path opacity="0.5" d="M176.272 502.656L175.289 502.302L175.23 502.39H175.171V499.717C175.171 499.387 175.144 499.059 175.092 498.734C176.685 497.562 177.904 495.953 178.601 494.103C179.978 492.319 180.827 490.184 181.053 487.941C181.278 485.699 180.87 483.438 179.876 481.415C178.882 479.392 177.341 477.688 175.427 476.497C173.514 475.305 171.305 474.673 169.051 474.673C166.797 474.673 164.588 475.305 162.675 476.497C160.762 477.688 159.22 479.392 158.226 481.415C157.232 483.438 156.824 485.699 157.049 487.941C157.275 490.184 158.124 492.319 159.501 494.103C160.199 495.953 161.418 497.562 163.01 498.734C162.958 499.059 162.931 499.387 162.932 499.717V502.666C157.656 504.122 153.005 507.269 149.689 511.623C146.374 515.977 144.579 521.298 144.578 526.77V548.702H194.566V526.731C194.563 521.271 192.773 515.963 189.469 511.615C186.166 507.268 181.531 504.122 176.272 502.656Z" fill="url(#paint11_linear)"/>
</g>
<path d="M168.034 502.105H171.081C174.041 502.105 176.972 502.688 179.707 503.821C182.442 504.954 184.927 506.614 187.02 508.707C189.113 510.801 190.774 513.286 191.907 516.02C193.039 518.755 193.623 521.687 193.623 524.647V547.257H145.453V524.647C145.453 521.683 146.037 518.749 147.172 516.011C148.308 513.274 149.972 510.787 152.069 508.694C154.166 506.6 156.656 504.94 159.395 503.81C162.135 502.679 165.07 502.1 168.034 502.105Z" fill="#514ABF"/>
<path d="M169.439 494.251H168.702C165.651 494.251 163.177 496.724 163.177 499.775V503.462C163.177 506.513 165.651 508.987 168.702 508.987H169.439C172.491 508.987 174.964 506.513 174.964 503.462V499.775C174.964 496.724 172.491 494.251 169.439 494.251Z" fill="#FDA57D"/>
<path opacity="0.1" d="M154.536 520.144C154.536 520.144 152.197 543.433 153.711 544.947L154.536 520.144Z" fill="black"/>
<path opacity="0.1" d="M183.477 520.144C183.477 520.144 185.817 543.433 184.303 544.947L183.477 520.144Z" fill="black"/>
<path opacity="0.05" d="M169.066 501.358C171.159 501.358 173.198 500.69 174.886 499.451C174.664 498.067 173.956 496.807 172.89 495.898C171.823 494.988 170.468 494.488 169.066 494.487C167.664 494.488 166.309 494.988 165.242 495.898C164.176 496.807 163.468 498.067 163.246 499.451C164.933 500.69 166.972 501.358 169.066 501.358Z" fill="black"/>
<path d="M169.066 499.274C175.478 499.274 180.676 494.076 180.676 487.664C180.676 481.252 175.478 476.054 169.066 476.054C162.654 476.054 157.456 481.252 157.456 487.664C157.456 494.076 162.654 499.274 169.066 499.274Z" fill="#444444"/>
<path d="M169.066 501.122C174.49 501.122 178.887 496.725 178.887 491.302C178.887 485.878 174.49 481.481 169.066 481.481C163.642 481.481 159.245 485.878 159.245 491.302C159.245 496.725 163.642 501.122 169.066 501.122Z" fill="#FDA57D"/>
<path opacity="0.05" d="M161.152 481.569L163.63 484.597C163.63 484.597 174.512 485.58 175.751 483.083C176.989 480.586 168.584 478.807 168.584 478.807L161.152 481.569Z" fill="black"/>
<path d="M161.152 481.294L163.63 484.322C163.63 484.322 174.512 485.305 175.751 482.808C176.989 480.311 168.584 478.532 168.584 478.532L161.152 481.294Z" fill="#444444"/>
<path d="M159.225 491.901C159.605 491.901 159.914 491.347 159.914 490.663C159.914 489.979 159.605 489.424 159.225 489.424C158.845 489.424 158.537 489.979 158.537 490.663C158.537 491.347 158.845 491.901 159.225 491.901Z" fill="#FDA57D"/>
<path d="M178.926 491.901C179.306 491.901 179.614 491.347 179.614 490.663C179.614 489.979 179.306 489.424 178.926 489.424C178.546 489.424 178.238 489.979 178.238 490.663C178.238 491.347 178.546 491.901 178.926 491.901Z" fill="#FDA57D"/>
<path d="M290.198 297.699H129.635V304.678H290.198V297.699Z" fill="white"/>
<path d="M290.198 311.658H129.635V318.638H290.198V311.658Z" fill="white"/>
<path d="M220.391 325.617H129.635V332.597H220.391V325.617Z" fill="white"/>
<path d="M262.279 339.587H129.635V346.566H262.279V339.587Z" fill="white"/>
<path d="M241.33 353.546H129.635V360.526H241.33V353.546Z" fill="white"/>
<path d="M290.198 367.505H129.635V374.485H290.198V367.505Z" fill="white"/>
<path d="M276.239 388.454H136.615V444.302H276.239V388.454Z" fill="white"/>
<path d="M162.243 487.595C162.739 486.719 163.15 485.797 163.472 484.843C163.994 483.712 164.818 482.748 165.853 482.057C166.889 481.366 168.095 480.974 169.339 480.925C170.583 480.876 171.816 481.172 172.903 481.78C173.989 482.388 174.886 483.285 175.495 484.371C176.301 485.816 176.567 487.527 177.461 488.922C177.588 489.018 177.733 489.085 177.888 489.122C178.042 489.158 178.202 489.162 178.358 489.133C178.515 489.105 178.663 489.044 178.794 488.955C178.926 488.867 179.038 488.752 179.122 488.618C179.278 488.334 179.368 488.019 179.387 487.696C179.406 487.373 179.352 487.05 179.231 486.75C179.024 486.14 178.68 485.58 178.454 484.98C178.228 484.004 177.899 483.055 177.471 482.149C176.945 481.463 176.274 480.902 175.505 480.508C173.332 479.171 170.816 477.784 168.358 478.541C167.529 478.825 166.744 479.226 166.028 479.731L162.902 481.697C161.897 482.26 160.998 482.995 160.248 483.87C159.57 484.754 158.282 487.399 158.881 488.539C159.589 489.837 161.624 488.411 162.243 487.595Z" fill="#444444"/>
<path d="M166.598 508.24V547.296H172.369L171.514 508.24H166.598Z" fill="white"/>
<path d="M165.635 507.709L168.977 512.575L172.497 507.709H165.635Z" fill="#FDA57D"/>
<path d="M783.634 498.239L789.265 511.271L837.347 493.432L829.037 474.198L783.634 498.239Z" fill="#FFB8B8"/>
<path d="M789.192 542.191L771.498 501.235L785.791 493.667L797.172 520.008C798.847 523.884 799.062 528.338 797.77 532.389C796.479 536.441 793.786 539.758 790.285 541.612L789.192 542.191Z" fill="#2F2E41"/>
<path d="M772.3 614.614L785.341 614.126L785.889 557.929L770.603 558.928L772.3 614.614Z" fill="#FFB8B8"/>
<path d="M773.373 606.171C772.279 606.171 771.217 605.765 770.357 605.019C769.496 604.272 768.886 603.227 768.625 602.051C761.481 570.275 734.899 410.171 758.405 378.727L758.61 378.452L758.921 378.365C760.572 377.903 791.678 367.241 809.93 383.883L810.143 384.078L820.301 416.63L847.685 461.631C849.184 464.095 850.222 466.868 850.735 469.784C851.249 472.701 851.229 475.702 850.676 478.609C850.123 481.517 849.049 484.272 847.516 486.712C845.984 489.151 844.024 491.225 841.754 492.811L805.796 517.932C804.928 518.512 803.918 518.782 802.906 518.703C801.894 518.624 800.928 518.2 800.142 517.491C799.481 516.885 798.973 516.101 798.667 515.214L791.11 494.3C790.659 493.032 790.652 491.624 791.089 490.35C791.527 489.076 792.377 488.029 793.475 487.413L810.322 478.088C810.784 477.806 811.184 477.416 811.494 476.946C811.805 476.475 812.019 475.935 812.121 475.363C812.167 474.846 812.099 474.324 811.923 473.842C811.747 473.36 811.468 472.932 811.11 472.596L791.554 453.932C791.119 453.517 790.584 453.252 790.015 453.168C789.446 453.085 788.867 453.187 788.35 453.463C787.832 453.739 787.399 454.175 787.102 454.72C786.806 455.264 786.66 455.893 786.682 456.528L791.53 598.21C791.575 599.54 791.178 600.843 790.414 601.871C789.65 602.899 788.572 603.582 787.385 603.79L774.158 606.102C773.899 606.148 773.636 606.171 773.373 606.171Z" fill="#2F2E41"/>
<path d="M807.108 389.658C806.998 389.658 806.886 389.654 806.775 389.644L758.005 385.645C757.328 385.591 756.672 385.364 756.086 384.984C755.501 384.603 755.003 384.078 754.631 383.449C754.259 382.821 754.023 382.106 753.941 381.36C753.859 380.614 753.933 379.857 754.158 379.149C757.158 369.573 757.526 359.228 755.215 349.422C752.039 335.556 751.964 309.776 752.202 295.643C752.256 293.247 753.124 290.962 754.633 289.243C756.141 287.524 758.18 286.498 760.342 286.37L760.342 286.351L761.325 286.364C769.27 286.487 783.849 287.115 795.78 289.863C799.801 290.784 803.418 293.194 806.037 296.694C808.656 300.195 810.12 304.578 810.189 309.123C810.459 322.244 810.499 340.005 809.154 350.101C808.02 358.618 810.115 374.974 811.466 383.966C811.57 384.666 811.536 385.383 811.365 386.068C811.194 386.752 810.891 387.387 810.477 387.928C810.062 388.47 809.546 388.905 808.964 389.204C808.383 389.502 807.749 389.658 807.108 389.658H807.108Z" fill="#3F3D56"/>
<path d="M824.519 441.126C823.219 440.437 822.072 439.441 821.158 438.209C820.244 436.976 819.586 435.537 819.229 433.992C818.871 432.447 818.825 430.834 819.092 429.266C819.358 427.699 819.932 426.216 820.773 424.921L798.248 317.39H815.278L835.157 422.802C837.028 424.509 838.269 426.918 838.644 429.571C839.019 432.223 838.501 434.936 837.19 437.195C835.879 439.454 833.864 441.101 831.529 441.826C829.194 442.55 826.699 442.301 824.519 441.126H824.519Z" fill="#FFB8B8"/>
<path d="M800.043 324.28C799.209 324.283 798.392 324.024 797.687 323.531C796.981 323.039 796.417 322.335 796.06 321.502C793.911 316.479 792.432 311.139 791.668 305.647C790.498 296.676 796.133 291.339 801.863 290.176C807.437 289.045 814.226 291.758 815.962 300.386C816.107 301.117 816.22 301.855 816.298 302.598C816.993 309.139 817.647 314.225 818.242 317.718C818.358 318.405 818.341 319.112 818.19 319.79C818.039 320.469 817.759 321.104 817.368 321.653C816.977 322.201 816.484 322.651 815.923 322.971C815.362 323.291 814.745 323.474 814.115 323.508L800.269 324.274C800.193 324.278 800.118 324.28 800.043 324.28Z" fill="#3F3D56"/>
<path d="M780.734 277.108C797.02 277.108 810.222 262.492 810.222 244.463C810.222 226.433 797.02 211.818 780.734 211.818C764.448 211.818 751.246 226.433 751.246 244.463C751.246 262.492 764.448 277.108 780.734 277.108Z" fill="#2F2E41"/>
<path d="M780.912 279.663C794.245 279.663 805.054 267.697 805.054 252.937C805.054 238.176 794.245 226.21 780.912 226.21C767.579 226.21 756.77 238.176 756.77 252.937C756.77 267.697 767.579 279.663 780.912 279.663Z" fill="#FFB8B8"/>
<path d="M738.062 311.274C737.446 310.652 737.002 309.849 736.782 308.959C736.563 308.069 736.576 307.127 736.822 306.245C738.303 300.936 740.472 295.892 743.26 291.272C747.873 283.783 755.284 284.063 760.218 287.492C765.018 290.828 768.367 297.906 764.381 305.565C764.042 306.212 763.675 306.84 763.279 307.447C759.8 312.788 757.177 317.028 755.484 320.048C755.151 320.642 754.707 321.149 754.181 321.537C753.656 321.924 753.062 322.183 752.439 322.295C751.816 322.407 751.178 322.37 750.569 322.186C749.96 322.002 749.394 321.676 748.908 321.229L738.233 311.438C738.175 311.384 738.118 311.33 738.062 311.274Z" fill="#3F3D56"/>
<path d="M775.006 215.308C769.072 211.388 767.787 201.628 771.323 195.055C774.858 188.483 782.002 185.054 788.909 184.828C798.775 184.505 808.303 189.943 815.208 197.75C822.114 205.557 826.671 215.55 830.144 225.778C833.616 236.006 836.108 246.614 839.53 256.863C841.286 262.122 843.448 267.522 847.465 270.938C851.482 274.353 857.867 274.969 861.301 270.847C861.288 277.443 856.721 283.438 851.056 285.48C845.391 287.522 838.983 285.98 834.016 282.337C825.401 276.016 821.241 264.479 818.864 253.344C816.486 242.209 815.315 230.541 810.535 220.396C808.554 216.193 805.84 212.201 802.021 210.056C798.202 207.911 793.114 208.052 790.042 211.355C788.619 212.885 787.698 214.971 786.083 216.246C785.061 216.953 783.907 217.393 782.708 217.531C781.51 217.669 780.298 217.502 779.167 217.043C776.913 216.105 774.804 214.787 772.913 213.137" fill="#2F2E41"/>
<path d="M755.699 234.878C758.026 238.342 760.961 241.247 764.33 243.421C767.698 245.594 771.428 246.991 775.297 247.525C779.166 248.06 783.092 247.722 786.839 246.531C790.587 245.341 794.078 243.323 797.102 240.599C799.446 238.488 801.623 235.578 801.476 232.237C801.325 228.814 798.798 226.126 796.218 224.233C789.431 219.294 781.267 217.218 773.213 218.381C768.618 219.065 764.009 220.919 760.755 224.575C757.501 228.232 755.879 233.918 757.558 238.703" fill="#2F2E41"/>
<path d="M794.298 377.658L802.402 369.554L788.404 355.556L766.302 377.658" fill="#78B75B"/>
<path d="M772.933 377.658C772.933 375.772 773.652 373.887 775.091 372.448C777.968 369.571 782.633 369.571 785.51 372.448C786.949 373.887 787.668 375.772 787.668 377.658" fill="#669E4F"/>
<path d="M785.33 378.699C785.33 377.913 785.024 377.172 784.467 376.615C783.354 375.502 781.412 375.502 780.3 376.615L778.216 374.531C778.791 373.957 779.725 373.958 780.3 374.532L781.341 373.489C780.193 372.341 778.324 372.341 777.174 373.489L776.653 372.968L775.611 374.011L776.133 374.532C775.576 375.089 775.27 375.828 775.27 376.616C775.269 377.403 775.576 378.143 776.133 378.7C776.69 379.256 777.43 379.563 778.217 379.563C779.004 379.563 779.743 379.256 780.3 378.7L782.384 380.784C781.808 381.358 780.875 381.358 780.3 380.784L779.259 381.826C779.832 382.4 780.588 382.687 781.342 382.687C782.096 382.687 782.851 382.4 783.426 381.826L783.946 382.347L784.989 381.304L784.467 380.783C785.024 380.226 785.33 379.486 785.33 378.699ZM779.257 377.658C778.702 378.214 777.73 378.214 777.174 377.658C776.896 377.379 776.742 377.009 776.743 376.616C776.743 376.222 776.896 375.853 777.174 375.574L779.257 377.658ZM781.342 377.657C781.898 377.101 782.869 377.101 783.425 377.657C783.703 377.935 783.857 378.305 783.857 378.699C783.857 379.092 783.703 379.462 783.426 379.74L781.342 377.657Z" fill="#78B75B"/>
<path d="M792.252 376.125L791.209 375.083L796.939 369.352L788.604 361.018L782.874 366.748L781.831 365.706L788.082 359.454C788.371 359.167 788.837 359.166 789.125 359.454L798.503 368.832C798.641 368.97 798.718 369.157 798.718 369.352C798.718 369.548 798.641 369.736 798.503 369.874L792.252 376.125Z" fill="#669E4F"/>
<path d="M789.143 372.988L790.185 371.944L791.228 372.986L790.186 374.029L789.143 372.988Z" fill="#96CC7F"/>
<path d="M791.205 370.924L792.247 369.882L793.29 370.925L792.248 371.967L791.205 370.924Z" fill="#96CC7F"/>
<path d="M783.933 367.789L784.976 366.747L786.017 367.79L784.974 368.832L783.933 367.789Z" fill="#96CC7F"/>
<path d="M785.997 365.713L787.039 364.671L788.081 365.714L787.039 366.756L785.997 365.713Z" fill="#96CC7F"/>
<path d="M758.198 377.658H802.402V396.813H758.198V377.658Z" fill="#96CC7F"/>
<path d="M780.3 394.603C784.369 394.603 787.668 391.304 787.668 387.235C787.668 383.166 784.369 379.868 780.3 379.868C776.231 379.868 772.933 383.166 772.933 387.235C772.933 391.304 776.231 394.603 780.3 394.603Z" fill="#78B75B"/>
<path d="M769.249 396.813L772.196 399.76L775.143 396.813" fill="#78B75B"/>
<path d="M781.037 386.498H781.036V383.552H781.037C781.849 383.552 782.509 384.212 782.509 385.025H783.983C783.983 383.4 782.661 382.078 781.037 382.078H781.036V381.341H779.563V382.078C777.938 382.078 776.616 383.4 776.616 385.025C776.616 386.65 777.938 387.971 779.563 387.971V390.918C778.749 390.918 778.089 390.257 778.089 389.445L776.616 389.445C776.616 391.07 777.938 392.392 779.563 392.392V393.128H781.036V392.392H781.037C782.661 392.392 783.983 391.07 783.983 389.445C783.983 387.819 782.661 386.498 781.037 386.498ZM778.089 385.025C778.089 384.212 778.749 383.552 779.563 383.552V386.498C778.75 386.498 778.089 385.837 778.089 385.025ZM781.037 390.918H781.036V387.971H781.037C781.849 387.971 782.509 388.632 782.509 389.445C782.509 390.257 781.849 390.918 781.037 390.918Z" fill="#669E4F"/>
<path d="M799.454 394.602H790.614V393.128H798.717V381.341H790.614V379.868H799.454C799.861 379.868 800.191 380.197 800.191 380.605V393.866C800.191 394.273 799.861 394.602 799.454 394.602Z" fill="#669E4F"/>
<path d="M769.985 394.603H761.145C760.738 394.603 760.408 394.273 760.408 393.866V380.605C760.408 380.197 760.738 379.868 761.144 379.868H769.985L769.986 381.341H761.882V393.129H769.985V394.603Z" fill="#669E4F"/>
<path d="M790.614 390.182H792.087V391.656H790.614V390.182Z" fill="#78B75B"/>
<path d="M793.561 390.182H795.034V391.656H793.561V390.182Z" fill="#78B75B"/>
<path d="M790.614 382.815H792.087V384.288H790.614V382.815Z" fill="#78B75B"/>
<path d="M793.561 382.815H795.034V384.288H793.561V382.815Z" fill="#78B75B"/>
<path d="M765.566 382.815H767.038V384.288H765.566V382.815Z" fill="#78B75B"/>
<path d="M768.513 382.815H769.985V384.288H768.513V382.815Z" fill="#78B75B"/>
<path d="M765.566 390.182H767.038V391.656H765.566V390.182Z" fill="#78B75B"/>
<path d="M768.513 390.182H769.985V391.656H768.513V390.182Z" fill="#78B75B"/>
<path d="M717.84 329.039L744.807 300.798L754.967 316.544L729.568 341.288L762.877 370.571C763.118 370.553 763.357 370.53 763.602 370.53C765.652 370.528 767.659 371.18 769.383 372.407C771.107 373.634 772.475 375.386 773.323 377.451C774.172 379.517 774.465 381.809 774.167 384.054C773.87 386.299 772.994 388.402 771.645 390.111C770.296 391.819 768.532 393.062 766.562 393.689C764.592 394.316 762.501 394.302 760.538 393.648C758.575 392.994 756.824 391.727 755.495 390.001C754.165 388.274 753.313 386.159 753.04 383.91L752.935 384.027L718.267 350.765C716.87 349.424 715.741 347.774 714.955 345.921C714.169 344.068 713.742 342.053 713.701 340.007C713.661 337.96 714.009 335.927 714.721 334.037C715.434 332.148 716.497 330.446 717.84 329.039Z" fill="#FFB8B8"/>
<path d="M686.634 74.2252H686V82.6199H686.634V74.2252Z" fill="#535461"/>
<path d="M686.634 85.5029H686V90.2515H686.634V85.5029Z" fill="#535461"/>
<path d="M710.732 66H690.722C688.364 66 686.453 67.7881 686.453 69.9939V120.006C686.453 122.212 688.364 124 690.722 124H710.732C713.089 124 715 122.212 715 120.006V69.9939C715 67.7881 713.089 66 710.732 66Z" fill="#535461"/>
<path d="M710.732 68.7134H690.722C688.364 68.7134 686.453 70.5016 686.453 72.7073V117.547C686.453 119.753 688.364 121.541 690.722 121.541H710.732C713.089 121.541 715 119.753 715 117.547V72.7073C715 70.5016 713.089 68.7134 710.732 68.7134Z" fill="#3AD29F"/>
<path d="M702.811 67.2719H698.733C698.558 67.2719 698.416 67.4048 698.416 67.5687C698.416 67.7326 698.558 67.8655 698.733 67.8655H702.811C702.986 67.8655 703.128 67.7326 703.128 67.5687C703.128 67.4048 702.986 67.2719 702.811 67.2719Z" fill="#EAEAF3"/>
<path d="M704.759 68.0351C705.01 68.0351 705.213 67.8453 705.213 67.6111C705.213 67.377 705.01 67.1871 704.759 67.1871C704.509 67.1871 704.306 67.377 704.306 67.6111C704.306 67.8453 704.509 68.0351 704.759 68.0351Z" fill="#EAEAF3"/>
<path d="M693.322 92.1339V98.324C693.325 98.5181 693.286 98.7107 693.208 98.8905C693.13 99.0704 693.014 99.234 692.868 99.3717C692.722 99.5095 692.548 99.6187 692.357 99.693C692.165 99.7673 691.959 99.8052 691.752 99.8045C690.878 99.8045 690.03 99.1423 690.03 98.324V92.1339C690.03 91.3267 690.876 90.6644 691.752 90.6644C692.168 90.666 692.566 90.8213 692.861 91.0966C693.155 91.3718 693.321 91.7447 693.322 92.1339V92.1339ZM693.94 100.524C693.939 100.731 693.983 100.937 694.067 101.129C694.152 101.321 694.277 101.496 694.434 101.643C694.591 101.79 694.777 101.906 694.982 101.986C695.188 102.065 695.408 102.105 695.63 102.105H696.766L696.783 105.37C696.783 107.342 699.936 107.327 699.936 105.37V102.106H702.061V105.371C702.061 107.333 705.232 107.338 705.232 105.371V102.106H706.386C706.607 102.105 706.826 102.064 707.03 101.984C707.235 101.904 707.42 101.787 707.576 101.641C707.732 101.494 707.855 101.32 707.939 101.128C708.023 100.937 708.066 100.731 708.065 100.524V90.9341H693.94V100.524ZM708.103 90.4185H693.875C693.875 88.129 695.337 86.1431 697.508 85.1069L696.42 83.2202C696.261 82.9582 696.666 82.7963 696.802 83.0176L697.911 84.9204C698.886 84.5212 699.939 84.3151 701.003 84.3151C702.068 84.3151 703.121 84.5212 704.096 84.9204L705.198 83.0235C705.341 82.7937 705.742 82.965 705.58 83.2262L704.493 85.1069C706.642 86.1431 708.103 88.1316 708.103 90.4185ZM698.354 87.4507C698.354 87.3018 698.291 87.159 698.178 87.0537C698.066 86.9485 697.913 86.8893 697.754 86.8893C697.599 86.895 697.452 86.9565 697.345 87.0611C697.237 87.1657 697.177 87.3052 697.177 87.4503C697.177 87.5954 697.237 87.7348 697.345 87.8394C697.452 87.944 697.599 88.0055 697.754 88.0112C697.913 88.0112 698.065 87.9524 698.177 87.8477C698.29 87.7429 698.353 87.6008 698.354 87.4524V87.4507ZM704.831 87.4507C704.829 87.3414 704.793 87.235 704.726 87.1451C704.66 87.0551 704.567 86.9856 704.458 86.9453C704.349 86.905 704.231 86.8957 704.116 86.9186C704.002 86.9415 703.898 86.9956 703.816 87.074C703.735 87.1524 703.68 87.2516 703.659 87.3591C703.638 87.4666 703.651 87.5776 703.698 87.678C703.744 87.7784 703.821 87.8637 703.919 87.9231C704.017 87.9826 704.131 88.0135 704.248 88.012C704.404 88.0087 704.553 87.9482 704.662 87.8436C704.771 87.7389 704.831 87.5985 704.831 87.4524V87.4507ZM710.245 90.6627C710.038 90.6622 709.834 90.6998 709.643 90.7734C709.452 90.8471 709.279 90.9553 709.133 91.0919C708.987 91.2285 708.871 91.3907 708.793 91.5692C708.714 91.7478 708.674 91.9391 708.674 92.1322V98.3223C708.674 98.516 708.714 98.708 708.792 98.8872C708.87 99.0665 708.986 99.2295 709.132 99.367C709.278 99.5045 709.451 99.6138 709.642 99.6885C709.833 99.7633 710.038 99.8021 710.245 99.8028C711.125 99.8028 711.967 99.1406 711.967 98.3223V92.1322C711.964 91.3114 711.119 90.6644 710.245 90.6644V90.6627Z" fill="white"/>
<path d="M729.287 187.468H706.349V187H695.948V187.468H672.915C672.712 187.468 672.51 187.508 672.322 187.585C672.133 187.662 671.962 187.775 671.818 187.918C671.674 188.06 671.56 188.23 671.482 188.416C671.404 188.602 671.364 188.802 671.364 189.004V220.095C671.364 220.502 671.527 220.893 671.818 221.181C672.109 221.469 672.504 221.631 672.915 221.631H729.287C729.491 221.631 729.693 221.591 729.881 221.514C730.069 221.436 730.24 221.323 730.385 221.181C730.529 221.038 730.643 220.869 730.721 220.682C730.799 220.496 730.839 220.296 730.839 220.095V189.004C730.839 188.802 730.799 188.602 730.721 188.416C730.643 188.23 730.529 188.06 730.385 187.918C730.24 187.775 730.069 187.662 729.881 187.585C729.693 187.508 729.491 187.468 729.287 187.468V187.468Z" fill="#3F3D56"/>
<path d="M728.759 190.182H673.444V221.069H728.759V190.182Z" fill="#514ABF"/>
<path d="M701.054 189.34C701.368 189.34 701.622 189.088 701.622 188.778C701.622 188.468 701.368 188.217 701.054 188.217C700.741 188.217 700.487 188.468 700.487 188.778C700.487 189.088 700.741 189.34 701.054 189.34Z" fill="#6C63FF"/>
<path d="M725.583 194.113H722.961V191.518H725.583V194.113ZM723.075 194H725.469V191.631H723.075V194Z" fill="#3F3D56"/>
<path d="M732.392 220.507H726.994V220.122C726.994 220.112 726.992 220.102 726.988 220.093C726.984 220.084 726.978 220.076 726.971 220.068C726.964 220.061 726.956 220.056 726.946 220.052C726.937 220.048 726.927 220.046 726.917 220.046H725.066C725.056 220.046 725.046 220.048 725.036 220.052C725.027 220.056 725.018 220.061 725.011 220.068C725.004 220.076 724.998 220.084 724.995 220.093C724.991 220.102 724.989 220.112 724.989 220.122V220.507H723.832V220.122C723.832 220.112 723.83 220.102 723.826 220.093C723.822 220.084 723.816 220.076 723.809 220.068C723.802 220.061 723.794 220.056 723.784 220.052C723.775 220.048 723.765 220.046 723.755 220.046H721.904C721.894 220.046 721.884 220.048 721.874 220.052C721.865 220.056 721.857 220.061 721.849 220.068C721.842 220.076 721.837 220.084 721.833 220.093C721.829 220.102 721.827 220.112 721.827 220.122V220.507H720.67V220.122C720.67 220.112 720.668 220.102 720.664 220.093C720.66 220.084 720.655 220.076 720.647 220.068C720.64 220.061 720.632 220.056 720.622 220.052C720.613 220.048 720.603 220.046 720.593 220.046H718.742C718.732 220.046 718.722 220.048 718.712 220.052C718.703 220.056 718.695 220.061 718.687 220.068C718.68 220.076 718.675 220.084 718.671 220.093C718.667 220.102 718.665 220.112 718.665 220.122V220.507H717.508V220.122C717.508 220.112 717.506 220.102 717.502 220.093C717.498 220.084 717.493 220.076 717.486 220.068C717.478 220.061 717.47 220.056 717.46 220.052C717.451 220.048 717.441 220.046 717.431 220.046H715.58C715.57 220.046 715.56 220.048 715.551 220.052C715.541 220.056 715.533 220.061 715.526 220.068C715.518 220.076 715.513 220.084 715.509 220.093C715.505 220.102 715.503 220.112 715.503 220.122V220.507H714.346V220.122C714.346 220.112 714.344 220.102 714.34 220.093C714.336 220.084 714.331 220.076 714.324 220.068C714.316 220.061 714.308 220.056 714.299 220.052C714.289 220.048 714.279 220.046 714.269 220.046H712.418C712.408 220.046 712.398 220.048 712.389 220.052C712.379 220.056 712.371 220.061 712.364 220.068C712.357 220.076 712.351 220.084 712.347 220.093C712.343 220.102 712.341 220.112 712.341 220.122V220.507H711.184V220.122C711.184 220.112 711.182 220.102 711.178 220.093C711.175 220.084 711.169 220.076 711.162 220.068C711.155 220.061 711.146 220.056 711.137 220.052C711.127 220.048 711.117 220.046 711.107 220.046H709.256C709.246 220.046 709.236 220.048 709.227 220.052C709.217 220.056 709.209 220.061 709.202 220.068C709.195 220.076 709.189 220.084 709.185 220.093C709.181 220.102 709.179 220.112 709.179 220.122V220.507H708.022V220.122C708.022 220.112 708.02 220.102 708.017 220.093C708.013 220.084 708.007 220.076 708 220.068C707.993 220.061 707.984 220.056 707.975 220.052C707.965 220.048 707.955 220.046 707.945 220.046H693.447C693.437 220.046 693.427 220.048 693.417 220.052C693.408 220.056 693.399 220.061 693.392 220.068C693.385 220.076 693.379 220.084 693.376 220.093C693.372 220.102 693.37 220.112 693.37 220.122V220.507H692.213V220.122C692.213 220.112 692.211 220.102 692.207 220.093C692.203 220.084 692.198 220.076 692.19 220.068C692.183 220.061 692.175 220.056 692.165 220.052C692.156 220.048 692.146 220.046 692.136 220.046H690.285C690.275 220.046 690.265 220.048 690.255 220.052C690.246 220.056 690.238 220.061 690.23 220.068C690.223 220.076 690.218 220.084 690.214 220.093C690.21 220.102 690.208 220.112 690.208 220.122V220.507H689.051V220.122C689.051 220.112 689.049 220.102 689.045 220.093C689.041 220.084 689.036 220.076 689.028 220.068C689.021 220.061 689.013 220.056 689.003 220.052C688.994 220.048 688.984 220.046 688.974 220.046H687.123C687.113 220.046 687.103 220.048 687.094 220.052C687.084 220.056 687.076 220.061 687.069 220.068C687.061 220.076 687.056 220.084 687.052 220.093C687.048 220.102 687.046 220.112 687.046 220.122V220.507H685.889V220.122C685.889 220.112 685.887 220.102 685.883 220.093C685.879 220.084 685.874 220.076 685.867 220.068C685.859 220.061 685.851 220.056 685.842 220.052C685.832 220.048 685.822 220.046 685.812 220.046H683.961C683.951 220.046 683.941 220.048 683.932 220.052C683.922 220.056 683.914 220.061 683.907 220.068C683.899 220.076 683.894 220.084 683.89 220.093C683.886 220.102 683.884 220.112 683.884 220.122V220.507H682.727V220.122C682.727 220.112 682.725 220.102 682.721 220.093C682.718 220.084 682.712 220.076 682.705 220.068C682.698 220.061 682.689 220.056 682.68 220.052C682.67 220.048 682.66 220.046 682.65 220.046H680.799C680.789 220.046 680.779 220.048 680.77 220.052C680.76 220.056 680.752 220.061 680.745 220.068C680.738 220.076 680.732 220.084 680.728 220.093C680.724 220.102 680.722 220.112 680.722 220.122V220.507H679.565V220.122C679.565 220.112 679.563 220.102 679.559 220.093C679.556 220.084 679.55 220.076 679.543 220.068C679.536 220.061 679.527 220.056 679.518 220.052C679.508 220.048 679.498 220.046 679.488 220.046H677.637C677.627 220.046 677.617 220.048 677.608 220.052C677.599 220.056 677.59 220.061 677.583 220.068C677.576 220.076 677.57 220.084 677.566 220.093C677.562 220.102 677.56 220.112 677.56 220.122V220.507H676.403V220.122C676.403 220.112 676.401 220.102 676.398 220.093C676.394 220.084 676.388 220.076 676.381 220.068C676.374 220.061 676.365 220.056 676.356 220.052C676.346 220.048 676.336 220.046 676.326 220.046H674.475C674.465 220.046 674.455 220.048 674.446 220.052C674.437 220.056 674.428 220.061 674.421 220.068C674.414 220.076 674.408 220.084 674.404 220.093C674.4 220.102 674.398 220.112 674.398 220.122V220.507H670.851C670.36 220.507 669.889 220.7 669.542 221.044C669.195 221.388 669 221.854 669 222.339V223.168C669 223.654 669.195 224.12 669.542 224.463C669.889 224.807 670.36 225 670.851 225H732.392C732.883 225 733.354 224.807 733.701 224.463C734.048 224.12 734.243 223.654 734.243 223.168V222.339C734.243 221.854 734.048 221.388 733.701 221.044C733.354 220.7 732.883 220.507 732.392 220.507V220.507Z" fill="#3F3D56"/>
<path d="M725.339 207.393H707.53V197.357H725.339V207.393ZM707.706 207.218H725.163V197.531H707.706V207.218Z" fill="#3F3D56"/>
<path d="M692.718 209.4H676.848V199.626H692.718V209.4ZM677.024 209.226H692.542V199.8H677.024V209.226Z" fill="#3F3D56"/>
<path d="M684.262 205.647L684.247 205.452C684.202 205.047 684.338 204.604 684.717 204.154C685.058 203.756 685.248 203.463 685.248 203.126C685.248 202.743 685.005 202.488 684.528 202.48C684.254 202.479 683.987 202.56 683.762 202.713L683.58 202.24C683.83 202.06 684.262 201.94 684.664 201.94C685.536 201.94 685.93 202.473 685.93 203.043C685.93 203.554 685.642 203.921 685.278 204.349C684.945 204.739 684.823 205.07 684.846 205.452L684.854 205.647L684.262 205.647ZM684.096 206.698C684.091 206.637 684.1 206.576 684.121 206.518C684.142 206.46 684.175 206.407 684.218 206.363C684.261 206.319 684.313 206.283 684.37 206.26C684.427 206.236 684.488 206.224 684.55 206.225C684.816 206.225 684.998 206.42 684.998 206.698C685 206.758 684.99 206.818 684.969 206.875C684.947 206.931 684.915 206.983 684.872 207.026C684.83 207.07 684.78 207.104 684.724 207.128C684.668 207.151 684.608 207.164 684.547 207.164C684.486 207.164 684.426 207.151 684.37 207.128C684.314 207.104 684.263 207.07 684.221 207.026C684.179 206.983 684.146 206.931 684.124 206.875C684.103 206.818 684.093 206.758 684.096 206.698V206.698Z" fill="#D0CDE1"/>
<path d="M715.914 203.466L715.899 203.271C715.853 202.865 715.99 202.422 716.369 201.972C716.71 201.574 716.9 201.282 716.9 200.944C716.9 200.561 716.657 200.306 716.179 200.298C715.906 200.297 715.639 200.379 715.414 200.531L715.232 200.058C715.482 199.878 715.914 199.758 716.316 199.758C717.188 199.758 717.582 200.291 717.582 200.861C717.582 201.372 717.294 201.739 716.93 202.167C716.596 202.557 716.475 202.888 716.498 203.27L716.505 203.466L715.914 203.466ZM715.747 204.516C715.743 204.455 715.752 204.394 715.773 204.336C715.794 204.278 715.827 204.226 715.87 204.181C715.913 204.137 715.964 204.102 716.021 204.078C716.079 204.054 716.14 204.043 716.202 204.044C716.467 204.044 716.649 204.239 716.649 204.516C716.652 204.577 716.642 204.637 716.621 204.693C716.599 204.749 716.566 204.801 716.524 204.844C716.482 204.888 716.431 204.922 716.375 204.946C716.319 204.97 716.259 204.982 716.198 204.982C716.137 204.982 716.077 204.97 716.021 204.946C715.965 204.922 715.915 204.888 715.873 204.844C715.83 204.801 715.798 204.749 715.776 204.693C715.754 204.637 715.745 204.577 715.747 204.516V204.516Z" fill="#D0CDE1"/>
<path d="M701.413 217.296C705.615 217.296 709.021 213.924 709.021 209.765C709.021 205.606 705.615 202.234 701.413 202.234C697.211 202.234 693.805 205.606 693.805 209.765C693.805 213.924 697.211 217.296 701.413 217.296Z" fill="#2F2E41"/>
<path d="M698.475 220.078L696.2 219.67L696.938 214.969L699.212 215.377L698.475 220.078Z" fill="#2F2E41"/>
<path d="M703.761 216.192L701.487 215.784L700.749 219.818L703.023 220.225L703.761 216.192Z" fill="#2F2E41"/>
<path d="M704.543 220.445C704.622 220.058 703.841 219.575 702.798 219.367C701.756 219.159 700.846 219.304 700.767 219.691C700.689 220.078 701.47 220.56 702.513 220.769C703.555 220.977 704.465 220.832 704.543 220.445Z" fill="#2F2E41"/>
<path d="M699.806 220.324C699.859 219.932 699.046 219.503 697.992 219.364C696.937 219.226 696.04 219.431 695.988 219.823C695.935 220.214 696.748 220.644 697.802 220.782C698.857 220.92 699.754 220.715 699.806 220.324Z" fill="#2F2E41"/>
<path d="M701.946 210.497C703.382 210.497 704.546 209.344 704.546 207.923C704.546 206.501 703.382 205.349 701.946 205.349C700.51 205.349 699.345 206.501 699.345 207.923C699.345 209.344 700.51 210.497 701.946 210.497Z" fill="white"/>
<path d="M703.014 207.858C703.493 207.858 703.881 207.474 703.881 207C703.881 206.526 703.493 206.142 703.014 206.142C702.536 206.142 702.148 206.526 702.148 207C702.148 207.474 702.536 207.858 703.014 207.858Z" fill="#3F3D56"/>
<path d="M695.411 201.572C695.297 198.784 697.724 196.422 700.833 196.297C703.942 196.172 706.555 198.331 706.67 201.119C706.784 203.907 704.623 204.541 701.514 204.666C698.405 204.791 695.526 204.36 695.411 201.572Z" fill="white"/>
<path d="M708.705 209.545C710.753 209.08 712.293 208.188 712.146 207.552C711.999 206.915 710.219 206.776 708.171 207.241C706.123 207.705 704.583 208.598 704.73 209.234C704.878 209.87 706.657 210.01 708.705 209.545Z" fill="#2F2E41"/>
<path d="M693.77 212.003C695.818 211.539 697.359 210.646 697.212 210.01C697.064 209.374 695.285 209.234 693.237 209.699C691.189 210.164 689.648 211.056 689.796 211.692C689.943 212.329 691.723 212.468 693.77 212.003Z" fill="#2F2E41"/>
<path d="M699.323 212.733C699.283 212.954 699.287 213.182 699.335 213.402C699.383 213.622 699.475 213.831 699.605 214.016C699.734 214.201 699.9 214.359 700.091 214.481C700.283 214.603 700.496 214.687 700.72 214.727C700.944 214.767 701.174 214.763 701.397 214.715C701.619 214.667 701.83 214.577 702.017 214.448C702.204 214.32 702.364 214.156 702.487 213.967C702.61 213.777 702.694 213.566 702.735 213.344C702.906 212.411 702.177 212.081 701.235 211.913C700.293 211.744 699.494 211.8 699.323 212.733Z" fill="white"/>
<path d="M678.735 189.378C679.041 189.378 679.289 189.133 679.289 188.83C679.289 188.527 679.041 188.282 678.735 188.282C678.43 188.282 678.182 188.527 678.182 188.83C678.182 189.133 678.43 189.378 678.735 189.378Z" fill="#3F3D56"/>
<path d="M685.368 213.562H681.979V216.917H685.368V213.562Z" fill="#6C63FF"/>
<path d="M684.685 212.185C684.991 212.185 685.239 211.94 685.239 211.637C685.239 211.335 684.991 211.09 684.685 211.09C684.38 211.09 684.132 211.335 684.132 211.637C684.132 211.94 684.38 212.185 684.685 212.185Z" fill="#3F3D56"/>
<path d="M285.287 489.468H262.349V489H251.948V489.468H228.915C228.712 489.468 228.51 489.508 228.322 489.585C228.133 489.662 227.962 489.775 227.818 489.918C227.674 490.06 227.56 490.23 227.482 490.416C227.404 490.602 227.364 490.802 227.364 491.004V522.095C227.364 522.502 227.527 522.893 227.818 523.181C228.109 523.469 228.504 523.631 228.915 523.631H285.287C285.491 523.631 285.693 523.591 285.881 523.514C286.069 523.436 286.24 523.323 286.385 523.181C286.529 523.038 286.643 522.869 286.721 522.682C286.799 522.496 286.839 522.296 286.839 522.095V491.004C286.839 490.802 286.799 490.602 286.721 490.416C286.643 490.23 286.529 490.06 286.385 489.918C286.24 489.775 286.069 489.662 285.881 489.585C285.693 489.508 285.491 489.468 285.287 489.468V489.468Z" fill="#3F3D56"/>
<path d="M284.759 492.182H229.444V523.069H284.759V492.182Z" fill="#FDD835"/>
<path d="M257.054 491.34C257.368 491.34 257.622 491.088 257.622 490.778C257.622 490.468 257.368 490.217 257.054 490.217C256.741 490.217 256.487 490.468 256.487 490.778C256.487 491.088 256.741 491.34 257.054 491.34Z" fill="#6C63FF"/>
<path d="M288.392 522.507H282.994V522.122C282.994 522.112 282.992 522.102 282.988 522.093C282.984 522.084 282.978 522.076 282.971 522.068C282.964 522.061 282.956 522.056 282.946 522.052C282.937 522.048 282.927 522.046 282.917 522.046H281.066C281.056 522.046 281.046 522.048 281.036 522.052C281.027 522.056 281.018 522.061 281.011 522.068C281.004 522.076 280.998 522.084 280.995 522.093C280.991 522.102 280.989 522.112 280.989 522.122V522.507H279.832V522.122C279.832 522.112 279.83 522.102 279.826 522.093C279.822 522.084 279.816 522.076 279.809 522.068C279.802 522.061 279.794 522.056 279.784 522.052C279.775 522.048 279.765 522.046 279.755 522.046H277.904C277.894 522.046 277.884 522.048 277.874 522.052C277.865 522.056 277.857 522.061 277.849 522.068C277.842 522.076 277.837 522.084 277.833 522.093C277.829 522.102 277.827 522.112 277.827 522.122V522.507H276.67V522.122C276.67 522.112 276.668 522.102 276.664 522.093C276.66 522.084 276.655 522.076 276.647 522.068C276.64 522.061 276.632 522.056 276.622 522.052C276.613 522.048 276.603 522.046 276.593 522.046H274.742C274.732 522.046 274.722 522.048 274.712 522.052C274.703 522.056 274.695 522.061 274.687 522.068C274.68 522.076 274.675 522.084 274.671 522.093C274.667 522.102 274.665 522.112 274.665 522.122V522.507H273.508V522.122C273.508 522.112 273.506 522.102 273.502 522.093C273.498 522.084 273.493 522.076 273.486 522.068C273.478 522.061 273.47 522.056 273.46 522.052C273.451 522.048 273.441 522.046 273.431 522.046H271.58C271.57 522.046 271.56 522.048 271.551 522.052C271.541 522.056 271.533 522.061 271.526 522.068C271.518 522.076 271.513 522.084 271.509 522.093C271.505 522.102 271.503 522.112 271.503 522.122V522.507H270.346V522.122C270.346 522.112 270.344 522.102 270.34 522.093C270.336 522.084 270.331 522.076 270.324 522.068C270.316 522.061 270.308 522.056 270.299 522.052C270.289 522.048 270.279 522.046 270.269 522.046H268.418C268.408 522.046 268.398 522.048 268.389 522.052C268.379 522.056 268.371 522.061 268.364 522.068C268.357 522.076 268.351 522.084 268.347 522.093C268.343 522.102 268.341 522.112 268.341 522.122V522.507H267.184V522.122C267.184 522.112 267.182 522.102 267.178 522.093C267.175 522.084 267.169 522.076 267.162 522.068C267.155 522.061 267.146 522.056 267.137 522.052C267.127 522.048 267.117 522.046 267.107 522.046H265.256C265.246 522.046 265.236 522.048 265.227 522.052C265.217 522.056 265.209 522.061 265.202 522.068C265.195 522.076 265.189 522.084 265.185 522.093C265.181 522.102 265.179 522.112 265.179 522.122V522.507H264.022V522.122C264.022 522.112 264.02 522.102 264.017 522.093C264.013 522.084 264.007 522.076 264 522.068C263.993 522.061 263.984 522.056 263.975 522.052C263.965 522.048 263.955 522.046 263.945 522.046H249.447C249.437 522.046 249.427 522.048 249.417 522.052C249.408 522.056 249.399 522.061 249.392 522.068C249.385 522.076 249.379 522.084 249.376 522.093C249.372 522.102 249.37 522.112 249.37 522.122V522.507H248.213V522.122C248.213 522.112 248.211 522.102 248.207 522.093C248.203 522.084 248.198 522.076 248.19 522.068C248.183 522.061 248.175 522.056 248.165 522.052C248.156 522.048 248.146 522.046 248.136 522.046H246.285C246.275 522.046 246.265 522.048 246.255 522.052C246.246 522.056 246.238 522.061 246.23 522.068C246.223 522.076 246.218 522.084 246.214 522.093C246.21 522.102 246.208 522.112 246.208 522.122V522.507H245.051V522.122C245.051 522.112 245.049 522.102 245.045 522.093C245.041 522.084 245.036 522.076 245.028 522.068C245.021 522.061 245.013 522.056 245.003 522.052C244.994 522.048 244.984 522.046 244.974 522.046H243.123C243.113 522.046 243.103 522.048 243.094 522.052C243.084 522.056 243.076 522.061 243.069 522.068C243.061 522.076 243.056 522.084 243.052 522.093C243.048 522.102 243.046 522.112 243.046 522.122V522.507H241.889V522.122C241.889 522.112 241.887 522.102 241.883 522.093C241.879 522.084 241.874 522.076 241.867 522.068C241.859 522.061 241.851 522.056 241.842 522.052C241.832 522.048 241.822 522.046 241.812 522.046H239.961C239.951 522.046 239.941 522.048 239.932 522.052C239.922 522.056 239.914 522.061 239.907 522.068C239.899 522.076 239.894 522.084 239.89 522.093C239.886 522.102 239.884 522.112 239.884 522.122V522.507H238.727V522.122C238.727 522.112 238.725 522.102 238.721 522.093C238.718 522.084 238.712 522.076 238.705 522.068C238.698 522.061 238.689 522.056 238.68 522.052C238.67 522.048 238.66 522.046 238.65 522.046H236.799C236.789 522.046 236.779 522.048 236.77 522.052C236.76 522.056 236.752 522.061 236.745 522.068C236.738 522.076 236.732 522.084 236.728 522.093C236.724 522.102 236.722 522.112 236.722 522.122V522.507H235.565V522.122C235.565 522.112 235.563 522.102 235.559 522.093C235.556 522.084 235.55 522.076 235.543 522.068C235.536 522.061 235.527 522.056 235.518 522.052C235.508 522.048 235.498 522.046 235.488 522.046H233.637C233.627 522.046 233.617 522.048 233.608 522.052C233.599 522.056 233.59 522.061 233.583 522.068C233.576 522.076 233.57 522.084 233.566 522.093C233.562 522.102 233.56 522.112 233.56 522.122V522.507H232.403V522.122C232.403 522.112 232.401 522.102 232.398 522.093C232.394 522.084 232.388 522.076 232.381 522.068C232.374 522.061 232.365 522.056 232.356 522.052C232.346 522.048 232.336 522.046 232.326 522.046H230.475C230.465 522.046 230.455 522.048 230.446 522.052C230.437 522.056 230.428 522.061 230.421 522.068C230.414 522.076 230.408 522.084 230.404 522.093C230.4 522.102 230.398 522.112 230.398 522.122V522.507H226.851C226.36 522.507 225.889 522.7 225.542 523.044C225.195 523.388 225 523.854 225 524.339V525.168C225 525.654 225.195 526.12 225.542 526.463C225.889 526.807 226.36 527 226.851 527H288.392C288.883 527 289.354 526.807 289.701 526.463C290.048 526.12 290.243 525.654 290.243 525.168V524.339C290.243 523.854 290.048 523.388 289.701 523.044C289.354 522.7 288.883 522.507 288.392 522.507V522.507Z" fill="#3F3D56"/>
<path d="M234.735 491.378C235.041 491.378 235.289 491.133 235.289 490.83C235.289 490.527 235.041 490.282 234.735 490.282C234.43 490.282 234.182 490.527 234.182 490.83C234.182 491.133 234.43 491.378 234.735 491.378Z" fill="#3F3D56"/>
<defs>
<linearGradient id="paint0_linear" x1="73.4047" y1="354.572" x2="73.4047" y2="86.3852" gradientUnits="userSpaceOnUse">
<stop stop-color="#808080" stop-opacity="0.25"/>
<stop offset="0.54" stop-color="#808080" stop-opacity="0.12"/>
<stop offset="1" stop-color="#808080" stop-opacity="0.1"/>
</linearGradient>
<linearGradient id="paint1_linear" x1="9801.75" y1="26609.1" x2="9801.75" y2="22383.8" gradientUnits="userSpaceOnUse">
<stop stop-color="#808080" stop-opacity="0.25"/>
<stop offset="0.54" stop-color="#808080" stop-opacity="0.12"/>
<stop offset="1" stop-color="#808080" stop-opacity="0.1"/>
</linearGradient>
<linearGradient id="paint2_linear" x1="11434.7" y1="26978" x2="11434.7" y2="23798.7" gradientUnits="userSpaceOnUse">
<stop stop-color="#808080" stop-opacity="0.25"/>
<stop offset="0.54" stop-color="#808080" stop-opacity="0.12"/>
<stop offset="1" stop-color="#808080" stop-opacity="0.1"/>
</linearGradient>
<linearGradient id="paint3_linear" x1="256763" y1="13594.4" x2="256763" y2="13188.3" gradientUnits="userSpaceOnUse">
<stop stop-color="#808080" stop-opacity="0.25"/>
<stop offset="0.54" stop-color="#808080" stop-opacity="0.12"/>
<stop offset="1" stop-color="#808080" stop-opacity="0.1"/>
</linearGradient>
<linearGradient id="paint4_linear" x1="430236" y1="219199" x2="430236" y2="75787.6" gradientUnits="userSpaceOnUse">
<stop stop-color="#808080" stop-opacity="0.25"/>
<stop offset="0.54" stop-color="#808080" stop-opacity="0.12"/>
<stop offset="1" stop-color="#808080" stop-opacity="0.1"/>
</linearGradient>
<linearGradient id="paint5_linear" x1="69575.1" y1="23260" x2="69575.1" y2="14877.8" gradientUnits="userSpaceOnUse">
<stop stop-color="#808080" stop-opacity="0.25"/>
<stop offset="0.54" stop-color="#808080" stop-opacity="0.12"/>
<stop offset="1" stop-color="#808080" stop-opacity="0.1"/>
</linearGradient>
<linearGradient id="paint6_linear" x1="69619.7" y1="33424" x2="69619.7" y2="25041.9" gradientUnits="userSpaceOnUse">
<stop stop-color="#808080" stop-opacity="0.25"/>
<stop offset="0.54" stop-color="#808080" stop-opacity="0.12"/>
<stop offset="1" stop-color="#808080" stop-opacity="0.1"/>
</linearGradient>
<linearGradient id="paint7_linear" x1="121745" y1="357339" x2="121491" y2="175048" gradientUnits="userSpaceOnUse">
<stop stop-color="#808080" stop-opacity="0.25"/>
<stop offset="0.54" stop-color="#808080" stop-opacity="0.12"/>
<stop offset="1" stop-color="#808080" stop-opacity="0.1"/>
</linearGradient>
<linearGradient id="paint8_linear" x1="216.443" y1="607.554" x2="215.946" y2="251.68" gradientUnits="userSpaceOnUse">
<stop stop-opacity="0.09"/>
<stop offset="0.55" stop-opacity="0.07"/>
<stop offset="1" stop-opacity="0.02"/>
</linearGradient>
<linearGradient id="paint9_linear" x1="30148.1" y1="61658.1" x2="30148.1" y2="53275.9" gradientUnits="userSpaceOnUse">
<stop stop-color="#808080" stop-opacity="0.25"/>
<stop offset="0.54" stop-color="#808080" stop-opacity="0.12"/>
<stop offset="1" stop-color="#808080" stop-opacity="0.1"/>
</linearGradient>
<linearGradient id="paint10_linear" x1="22279.1" y1="61566.4" x2="22279.1" y2="53184.2" gradientUnits="userSpaceOnUse">
<stop stop-color="#808080" stop-opacity="0.25"/>
<stop offset="0.54" stop-color="#808080" stop-opacity="0.12"/>
<stop offset="1" stop-color="#808080" stop-opacity="0.1"/>
</linearGradient>
<linearGradient id="paint11_linear" x1="18769.7" y1="52331.1" x2="21311.7" y2="52331.1" gradientUnits="userSpaceOnUse">
<stop stop-color="#808080" stop-opacity="0.25"/>
<stop offset="0.54" stop-color="#808080" stop-opacity="0.12"/>
<stop offset="1" stop-color="#808080" stop-opacity="0.1"/>
</linearGradient>
</defs>
</svg>
