<svg width="870" height="538" viewBox="0 0 870 538" fill="none" xmlns="http://www.w3.org/2000/svg">
<path d="M666.387 531.966C655.265 522.246 648.509 506.891 650.281 491.943C652.053 476.994 663.026 463.253 677.26 460.078C691.494 456.904 707.72 465.691 712.044 480.072C714.423 452.346 717.165 423.459 731.417 399.848C744.323 378.468 766.675 363.171 790.9 360.434C815.125 357.697 840.631 368.034 855.739 387.809C870.847 407.584 874.546 436.333 863.965 459.037C856.17 475.762 841.809 488.209 826.762 498.335C778.141 530.781 719.825 543.976 662.546 535.491L666.387 531.966Z" fill="#F2F2F2"/>
<path d="M831.979 368.569C811.923 385.388 793.524 404.198 777.048 424.728C751.263 456.748 730.397 492.647 715.178 531.176C714.064 533.987 718.497 535.211 719.599 532.431C744.5 469.813 784.253 414.622 835.221 371.907C837.509 369.988 834.249 366.666 831.979 368.569Z" fill="white"/>
<path d="M280.43 529.641C295.749 516.265 305.053 495.135 302.613 474.565C300.173 453.995 285.06 435.085 265.455 430.717C245.851 426.349 223.504 438.441 217.549 458.23C214.272 420.077 210.496 380.325 190.866 347.834C173.092 318.414 142.307 297.363 108.942 293.597C75.578 289.831 40.4496 304.055 19.6415 331.268C-1.16661 358.48 -6.26138 398.042 8.31207 429.284C19.0478 452.3 38.8269 469.428 59.5504 483.362C125.666 527.819 207.681 546.36 285.721 534.492" fill="#F2F2F2"/>
<path d="M52.5165 304.782C80.031 327.882 105.273 353.718 127.876 381.916C150.483 410.085 170.387 440.447 187.306 472.578C196.764 490.601 205.259 509.143 212.756 528.122C214.284 531.982 208.202 533.663 206.691 529.845C193.413 496.387 176.986 464.35 157.645 434.194C138.399 404.148 116.37 376.097 91.868 350.436C78.0097 335.929 63.388 322.218 48.0692 309.366C44.9293 306.73 49.4025 302.168 52.5165 304.782L52.5165 304.782Z" fill="white"/>
<path d="M624 537H259V149.512C259 67.0704 323.822 0 403.5 0H479.5C559.178 0 624 67.0704 624 149.512V537Z" fill="#F2F2F2"/>
<path d="M549 537H259V149.509C258.92 117.919 268.622 87.1275 286.692 61.6176C287.358 60.6814 288.022 59.7574 288.707 58.8434C297.448 47.0232 307.849 36.6133 319.568 27.9574C320.23 27.4607 320.894 26.9727 321.569 26.4846C331.375 19.4875 341.982 13.7674 353.15 9.45468C353.813 9.1955 354.488 8.93581 355.163 8.68673C365.263 4.9702 375.733 2.4244 386.379 1.09633C387.039 1.00336 387.717 0.930613 388.394 0.857864C398.769 -0.285955 409.233 -0.285955 419.607 0.857864C420.283 0.930613 420.961 1.00335 421.629 1.09732C432.272 2.42548 442.739 4.97098 452.836 8.68678C453.512 8.93586 454.187 9.19553 454.852 9.45522C465.882 13.7135 476.365 19.3482 486.066 26.2336C486.74 26.711 487.415 27.199 488.079 27.6871C494.648 32.5219 500.818 37.9082 506.527 43.791C511.104 48.5096 515.37 53.5394 519.295 58.8465C519.978 59.7574 520.642 60.6815 521.307 61.6162C539.378 87.1263 549.079 117.918 549 149.509V537Z" fill="#CCCCCC"/>
<path d="M525 364C533.837 364 541 356.389 541 347C541 337.611 533.837 330 525 330C516.163 330 509 337.611 509 347C509 356.389 516.163 364 525 364Z" fill="#6C63FF"/>
<path d="M594.998 525H582.802L577 476L595 476.001L594.998 525Z" fill="#FFB8B8"/>
<path d="M573.682 522H597V537H559C559 535.03 559.38 533.08 560.118 531.26C560.855 529.44 561.937 527.786 563.3 526.393C564.664 525.001 566.282 523.896 568.063 523.142C569.845 522.388 571.754 522 573.682 522V522Z" fill="#2F2E41"/>
<path d="M655.998 525H643.802L638 476L656 476.001L655.998 525Z" fill="#FFB8B8"/>
<path d="M634.682 522H658V537H620C620 535.03 620.38 533.08 621.118 531.26C621.855 529.44 622.937 527.786 624.3 526.393C625.664 525.001 627.282 523.896 629.063 523.142C630.845 522.388 632.754 522 634.682 522V522Z" fill="#2F2E41"/>
<path d="M532.866 350.048C531.978 348.705 531.388 347.179 531.137 345.577C530.886 343.975 530.98 342.336 531.413 340.775C531.846 339.215 532.607 337.77 533.643 336.544C534.678 335.318 535.963 334.34 537.407 333.679L579.357 215L600 226.563L552.101 339.977C553.023 342.54 552.996 345.36 552.027 347.905C551.058 350.449 549.213 352.54 546.842 353.781C544.471 355.023 541.739 355.328 539.163 354.64C536.587 353.952 534.347 352.318 532.866 350.048V350.048Z" fill="#FFB8B8"/>
<path d="M649.785 372.484C648.424 371.675 647.251 370.568 646.348 369.239C645.445 367.911 644.834 366.393 644.559 364.794C644.283 363.194 644.35 361.552 644.754 359.982C645.157 358.412 645.889 356.952 646.896 355.707L634 230L657.31 231.103L662.67 354.752C664.578 356.643 665.75 359.194 665.964 361.92C666.179 364.647 665.42 367.36 663.831 369.545C662.243 371.731 659.936 373.237 657.347 373.779C654.759 374.32 652.068 373.859 649.785 372.484V372.484Z" fill="#FFB8B8"/>
<path d="M612.5 193C626.031 193 637 181.583 637 167.5C637 153.417 626.031 142 612.5 142C598.969 142 588 153.417 588 167.5C588 181.583 598.969 193 612.5 193Z" fill="#FFB8B8"/>
<path d="M649.239 344H575L575.089 343.402C575.223 342.509 588.32 253.726 578.66 224.681C577.691 221.827 577.776 218.702 578.9 215.909C580.023 213.116 582.105 210.851 584.745 209.551H584.746C598.553 202.823 625.057 194.538 647.428 214.644C650.719 217.652 653.29 221.41 654.936 225.623C656.582 229.835 657.258 234.387 656.912 238.916L649.239 344Z" fill="#6C63FF"/>
<path d="M589.207 267L556 260.02L571.565 221.802C572.497 218.1 574.807 214.932 577.99 212.993C581.173 211.054 584.968 210.502 588.542 211.459C592.117 212.415 595.18 214.801 597.059 218.094C598.938 221.387 599.48 225.317 598.566 229.024L589.207 267Z" fill="#6C63FF"/>
<path d="M632.253 280L630.271 232.815C628.769 223.945 633.658 215.56 641.176 214.19C648.697 212.824 656.041 218.976 657.551 227.911L665 272.001L632.253 280Z" fill="#6C63FF"/>
<path d="M646.501 338C658.405 385.017 659.703 444.795 656.492 510L640.507 507.928L611.534 383.59L595.549 510L577.566 508.964C572.194 440.548 566.963 381.813 575.568 343.181L646.501 338Z" fill="#2F2E41"/>
<path d="M628.35 187.412C623.8 192.431 615.351 189.737 614.758 182.881C614.711 182.348 614.715 181.812 614.768 181.281C615.074 178.244 616.768 175.487 616.362 172.28C616.271 171.482 615.983 170.721 615.528 170.07C611.903 165.043 603.392 172.319 599.97 167.768C597.872 164.977 600.339 160.583 598.729 157.464C596.604 153.347 590.309 155.378 586.362 153.123C581.971 150.615 582.233 143.638 585.124 139.393C588.65 134.218 594.831 131.456 600.935 131.058C607.04 130.66 613.102 132.369 618.801 134.668C625.276 137.282 631.697 140.893 635.682 146.789C640.528 153.959 640.994 163.599 638.571 171.983C637.097 177.083 632.065 183.314 628.35 187.412Z" fill="#2F2E41"/>
<path d="M468.5 425H338.5C336.788 425.009 335.142 424.315 333.924 423.069C332.705 421.822 332.013 420.126 332 418.352V117.648C332.013 115.874 332.705 114.178 333.924 112.931C335.142 111.685 336.788 110.991 338.5 111H468.5C470.212 110.991 471.858 111.685 473.076 112.931C474.295 114.178 474.987 115.874 475 117.648V418.352C474.987 420.126 474.295 421.822 473.076 423.069C471.858 424.315 470.212 425.009 468.5 425V425Z" fill="white"/>
<path d="M475 208H332V210H475V208Z" fill="#CCCCCC"/>
<path d="M476 326H333V328H476V326Z" fill="#CCCCCC"/>
<path d="M379 111H377V426H379V111Z" fill="#CCCCCC"/>
<path d="M429 111H427V426H429V111Z" fill="#CCCCCC"/>
</svg>
