<svg width="173" height="34" viewBox="0 0 173 34" fill="none" xmlns="http://www.w3.org/2000/svg">
<path d="M7.16233 34C6.12536 34 5.05222 33.9521 3.9429 33.8564C2.8577 33.7846 1.97748 33.6888 1.30224 33.5692V29.7994C2.36333 29.8472 3.88261 29.8712 5.86009 29.8712C7.25879 29.8712 8.23548 29.7754 8.79013 29.584C9.34479 29.4164 9.69447 29.0574 9.83916 28.5069C10.008 27.9803 10.0924 27.0348 10.0924 25.6705V24.378H9.80299C9.39302 25.1918 8.81425 25.7663 8.06667 26.1014C7.3432 26.4365 6.45092 26.604 5.38984 26.604C4.01525 26.604 2.9421 26.3288 2.1704 25.7782C1.3987 25.2277 0.844046 24.2943 0.506427 22.9778C0.168809 21.6375 0 19.7705 0 17.377C0 14.9356 0.168809 13.0447 0.506427 11.7043C0.868161 10.364 1.43488 9.43048 2.20658 8.90391C2.97828 8.3534 4.03936 8.07814 5.38984 8.07814C7.68082 8.07814 9.18804 8.90391 9.91151 10.5554H10.2009L10.3456 8.36537H15.3375V24.5216C15.3375 26.987 15.1687 28.8539 14.8311 30.1225C14.5176 31.3911 13.7821 32.3485 12.6245 32.9947C11.467 33.6649 9.64624 34 7.16233 34ZM7.66876 22.2239C8.29576 22.2239 8.76602 22.1401 9.07952 21.9725C9.39302 21.805 9.62212 21.4938 9.76682 21.0391C9.91151 20.68 9.99591 20.2253 10.02 19.6748C10.0683 19.1243 10.0924 18.3583 10.0924 17.377C10.0924 16.4674 10.0683 15.7494 10.02 15.2228C9.99591 14.6723 9.92357 14.2295 9.80299 13.8944C9.6583 13.3678 9.4292 13.0088 9.11569 12.8173C8.80219 12.6258 8.31988 12.5301 7.66876 12.5301C6.84883 12.5301 6.28211 12.6258 5.96861 12.8173C5.67922 12.9849 5.4863 13.3798 5.38984 14.0021C5.29337 14.6244 5.24514 15.7494 5.24514 17.377C5.24514 18.9806 5.29337 20.0936 5.38984 20.7159C5.4863 21.3383 5.69128 21.7452 6.00478 21.9366C6.31829 22.1281 6.87294 22.2239 7.66876 22.2239ZM23.2081 26.963C21.5441 26.963 20.3263 26.5322 19.5546 25.6705C18.807 24.7849 18.4332 23.3728 18.4332 21.434C18.4332 20.0218 18.59 18.9088 18.9035 18.095C19.217 17.2812 19.7475 16.6948 20.4951 16.3358C21.2668 15.9768 22.352 15.7973 23.7507 15.7973C24.7877 15.7973 26.2467 15.8451 28.1277 15.9409V15.1869C28.1277 14.2056 28.0312 13.5234 27.8383 13.1404C27.6695 12.7335 27.3319 12.4822 26.8254 12.3865C26.319 12.2668 25.4388 12.207 24.1848 12.207C22.4726 12.207 20.893 12.2907 19.4461 12.4583V8.65259C21.4959 8.26962 23.6301 8.07814 25.8488 8.07814C28.0192 8.07814 29.6349 8.32946 30.696 8.8321C31.7812 9.33474 32.4926 10.1007 32.8302 11.1299C33.192 12.1352 33.3728 13.6072 33.3728 15.5459V26.6758H28.3809L28.2362 24.5216H27.9468C27.4645 25.4551 26.8134 26.1014 25.9934 26.4604C25.1976 26.7955 24.2692 26.963 23.2081 26.963ZM25.6317 22.906C26.1864 22.906 26.6205 22.8462 26.934 22.7265C27.2716 22.6068 27.5368 22.3914 27.7298 22.0803C27.995 21.6016 28.1277 20.7878 28.1277 19.6389V18.849H25.3423C24.7877 18.849 24.3777 18.8969 24.1124 18.9926C23.8713 19.0884 23.7025 19.2918 23.606 19.603C23.5095 19.8902 23.4613 20.345 23.4613 20.9673C23.4613 21.5178 23.5095 21.9247 23.606 22.188C23.7025 22.4513 23.8954 22.6427 24.1848 22.7624C24.4983 22.8581 24.9806 22.906 25.6317 22.906ZM42.1638 26.963C40.8133 26.963 39.7522 26.6878 38.9805 26.1373C38.2088 25.5868 37.6421 24.6413 37.2804 23.301C36.9428 21.9606 36.7739 20.0458 36.7739 17.5565C36.7739 15.1151 36.9428 13.2123 37.2804 11.8479C37.618 10.4836 38.1606 9.51426 38.9082 8.93981C39.6799 8.36537 40.741 8.07814 42.0914 8.07814C43.1766 8.07814 44.081 8.24569 44.8044 8.58078C45.552 8.91587 46.1429 9.49032 46.5769 10.3041H46.8663V0H52.1115V26.6758H47.1557L47.011 24.4857H46.6855C46.2996 25.4192 45.7088 26.0655 44.913 26.4245C44.1171 26.7835 43.2008 26.963 42.1638 26.963ZM44.4789 22.5111C45.1059 22.5111 45.5761 22.4273 45.8896 22.2598C46.2031 22.0922 46.4322 21.7691 46.5769 21.2904C46.6975 20.8835 46.7699 20.3928 46.794 19.8184C46.8422 19.2439 46.8663 18.478 46.8663 17.5206C46.8663 15.7733 46.7819 14.6125 46.6131 14.038C46.4925 13.4396 46.2634 13.0447 45.9258 12.8532C45.6123 12.6378 45.13 12.5301 44.4789 12.5301C43.6589 12.5301 43.0922 12.6258 42.7787 12.8173C42.4652 13.0088 42.2602 13.4277 42.1638 14.0739C42.0673 14.7202 42.0191 15.8691 42.0191 17.5206C42.0191 19.1721 42.0673 20.321 42.1638 20.9673C42.2602 21.6135 42.4652 22.0324 42.7787 22.2239C43.0922 22.4153 43.6589 22.5111 44.4789 22.5111ZM62.6588 34C61.6218 34 60.5487 33.9521 59.4394 33.8564C58.3542 33.7846 57.4739 33.6888 56.7987 33.5692V29.7994C57.8598 29.8472 59.3791 29.8712 61.3566 29.8712C62.7553 29.8712 63.7319 29.7754 64.2866 29.584C64.8413 29.4164 65.1909 29.0574 65.3356 28.5069C65.5044 27.9803 65.5888 27.0348 65.5888 25.6705V24.378H65.2995C64.8895 25.1918 64.3107 25.7663 63.5631 26.1014C62.8397 26.4365 61.9474 26.604 60.8863 26.604C59.5117 26.604 58.4386 26.3288 57.6669 25.7782C56.8952 25.2277 56.3405 24.2943 56.0029 22.9778C55.6653 21.6375 55.4965 19.7705 55.4965 17.377C55.4965 14.9356 55.6653 13.0447 56.0029 11.7043C56.3646 10.364 56.9313 9.43048 57.703 8.90391C58.4747 8.3534 59.5358 8.07814 60.8863 8.07814C63.1773 8.07814 64.6845 8.90391 65.408 10.5554H65.6974L65.8421 8.36537H70.834V24.5216C70.834 26.987 70.6652 28.8539 70.3276 30.1225C70.0141 31.3911 69.2785 32.3485 68.121 32.9947C66.9634 33.6649 65.1427 34 62.6588 34ZM63.1652 22.2239C63.7922 22.2239 64.2625 22.1401 64.576 21.9725C64.8895 21.805 65.1186 21.4938 65.2633 21.0391C65.408 20.68 65.4924 20.2253 65.5165 19.6748C65.5647 19.1243 65.5888 18.3583 65.5888 17.377C65.5888 16.4674 65.5647 15.7494 65.5165 15.2228C65.4924 14.6723 65.42 14.2295 65.2995 13.8944C65.1548 13.3678 64.9257 13.0088 64.6122 12.8173C64.2987 12.6258 63.8163 12.5301 63.1652 12.5301C62.3453 12.5301 61.7786 12.6258 61.4651 12.8173C61.1757 12.9849 60.9828 13.3798 60.8863 14.0021C60.7898 14.6244 60.7416 15.7494 60.7416 17.377C60.7416 18.9806 60.7898 20.0936 60.8863 20.7159C60.9828 21.3383 61.1877 21.7452 61.5013 21.9366C61.8148 22.1281 62.3694 22.2239 63.1652 22.2239ZM89.1584 18.9567H79.4277C79.4277 20.2492 79.5001 21.1468 79.6448 21.6494C79.7895 22.1281 80.1271 22.4513 80.6576 22.6188C81.2123 22.7863 82.1769 22.8701 83.5515 22.8701C84.5885 22.8701 86.2645 22.7744 88.5796 22.5829V26.3886C87.8561 26.5561 86.9036 26.6878 85.7219 26.7835C84.5643 26.9032 83.4309 26.963 82.3216 26.963C79.8377 26.963 78.017 26.6519 76.8594 26.0296C75.726 25.4073 75.0025 24.4738 74.689 23.2291C74.3758 21.9845 74.2191 20.0936 74.2191 17.5565C74.2191 15.0672 74.3758 13.1883 74.689 11.9197C75.0025 10.6512 75.7019 9.69377 76.7871 9.04752C77.8723 8.40127 79.5845 8.07814 81.9237 8.07814C84.2388 8.07814 85.9028 8.3893 86.9156 9.01162C87.9285 9.61 88.5555 10.5195 88.7966 11.7402C89.0378 12.9609 89.1584 14.8997 89.1584 17.5565V18.9567ZM81.8513 12.0634C81.1038 12.0634 80.5612 12.1471 80.2235 12.3147C79.91 12.4822 79.693 12.8293 79.5724 13.3559C79.476 13.8585 79.4277 14.7082 79.4277 15.905H84.2026C84.2026 14.6843 84.1423 13.8226 84.0218 13.32C83.9012 12.7934 83.6841 12.4583 83.3706 12.3147C83.0571 12.1471 82.5507 12.0634 81.8513 12.0634ZM93.9431 26.6758V12.4942H91.0854V8.36537H93.9431V3.05174H99.2244V8.36537H102.733V12.4942H99.2244V26.6758H93.9431ZM111.538 26.963C110.501 26.963 109.38 26.9152 108.174 26.8194C106.968 26.7237 105.932 26.592 105.063 26.4245V22.6188C106.655 22.8103 108.319 22.906 110.055 22.906C110.996 22.906 111.671 22.8701 112.081 22.7983C112.515 22.7026 112.792 22.547 112.913 22.3316C113.058 22.1162 113.13 21.7691 113.13 21.2904C113.13 20.8117 113.094 20.4766 113.022 20.2851C112.949 20.0936 112.804 19.962 112.587 19.8902C112.37 19.7944 111.985 19.7107 111.43 19.6389L107.74 19.1362C106.51 18.9687 105.666 18.466 105.208 17.6283C104.774 16.7906 104.557 15.4622 104.557 13.6431C104.557 12.1591 104.834 11.0102 105.389 10.1964C105.968 9.38261 106.751 8.8321 107.74 8.54488C108.729 8.23372 109.971 8.07814 111.466 8.07814C112.431 8.07814 113.456 8.13798 114.541 8.25766C115.626 8.3534 116.494 8.48504 117.145 8.65259V12.4224C115.12 12.2309 113.576 12.1352 112.515 12.1352C111.671 12.1352 111.044 12.1711 110.634 12.2429C110.248 12.3147 109.971 12.4583 109.802 12.6737C109.657 12.8652 109.585 13.1883 109.585 13.6431C109.585 14.0979 109.609 14.421 109.657 14.6125C109.73 14.78 109.85 14.9117 110.019 15.0074C110.212 15.0792 110.55 15.151 111.032 15.2228L114.541 15.6895C115.337 15.8092 115.976 16.0127 116.458 16.2999C116.964 16.5871 117.362 17.1017 117.652 17.8437C117.941 18.5857 118.086 19.6628 118.086 21.075C118.086 22.7026 117.821 23.9472 117.29 24.8089C116.784 25.6466 116.06 26.221 115.12 26.5322C114.203 26.8194 113.009 26.963 111.538 26.963ZM131.198 26.963C130.137 26.963 129.208 26.7835 128.413 26.4245C127.617 26.0655 127.026 25.4192 126.64 24.4857H126.351L126.206 26.6758H121.214V0H126.459V10.3041H126.749C127.183 9.49032 127.761 8.91587 128.485 8.58078C129.232 8.24569 130.149 8.07814 131.234 8.07814C132.585 8.07814 133.634 8.36537 134.381 8.93981C135.153 9.51426 135.707 10.4836 136.045 11.8479C136.407 13.2123 136.588 15.1151 136.588 17.5565C136.588 20.0218 136.407 21.9366 136.045 23.301C135.707 24.6413 135.153 25.5868 134.381 26.1373C133.609 26.6878 132.548 26.963 131.198 26.963ZM128.883 22.5111C129.703 22.5111 130.269 22.4153 130.583 22.2239C130.896 22.0324 131.101 21.6135 131.198 20.9673C131.294 20.321 131.343 19.1721 131.343 17.5206C131.343 15.8691 131.294 14.7202 131.198 14.0739C131.101 13.4277 130.896 13.0088 130.583 12.8173C130.269 12.6258 129.703 12.5301 128.883 12.5301C128.304 12.5301 127.858 12.6019 127.544 12.7455C127.255 12.8891 127.026 13.1524 126.857 13.5354C126.712 13.8944 126.604 14.3851 126.532 15.0074C126.483 15.6297 126.459 16.4674 126.459 17.5206C126.459 19.4593 126.58 20.7638 126.821 21.434C126.966 21.8409 127.195 22.1281 127.508 22.2957C127.822 22.4393 128.28 22.5111 128.883 22.5111ZM143.916 26.963C142.252 26.963 141.034 26.5322 140.262 25.6705C139.515 24.7849 139.141 23.3728 139.141 21.434C139.141 20.0218 139.298 18.9088 139.611 18.095C139.925 17.2812 140.455 16.6948 141.203 16.3358C141.975 15.9768 143.06 15.7973 144.458 15.7973C145.495 15.7973 146.954 15.8451 148.835 15.9409V15.1869C148.835 14.2056 148.739 13.5234 148.546 13.1404C148.377 12.7335 148.04 12.4822 147.533 12.3865C147.027 12.2668 146.147 12.207 144.893 12.207C143.18 12.207 141.601 12.2907 140.154 12.4583V8.65259C142.204 8.26962 144.338 8.07814 146.556 8.07814C148.727 8.07814 150.343 8.32946 151.404 8.8321C152.489 9.33474 153.2 10.1007 153.538 11.1299C153.9 12.1352 154.081 13.6072 154.081 15.5459V26.6758H149.089L148.944 24.5216H148.655C148.172 25.4551 147.521 26.1014 146.701 26.4604C145.905 26.7955 144.977 26.963 143.916 26.963ZM146.339 22.906C146.894 22.906 147.328 22.8462 147.642 22.7265C147.979 22.6068 148.245 22.3914 148.438 22.0803C148.703 21.6016 148.835 20.7878 148.835 19.6389V18.849H146.05C145.495 18.849 145.085 18.8969 144.82 18.9926C144.579 19.0884 144.41 19.2918 144.314 19.603C144.217 19.8902 144.169 20.345 144.169 20.9673C144.169 21.5178 144.217 21.9247 144.314 22.188C144.41 22.4513 144.603 22.6427 144.893 22.7624C145.206 22.8581 145.688 22.906 146.339 22.906ZM164.933 34C162.546 34 160.617 33.8684 159.146 33.6051V29.8353C160.327 29.8592 161.847 29.8712 163.703 29.8712C165.054 29.8712 165.994 29.7754 166.525 29.584C167.08 29.4164 167.417 29.0693 167.538 28.5428C167.683 28.0162 167.755 27.0827 167.755 25.7423V24.2344H167.502C167.092 25.0961 166.501 25.7184 165.729 26.1014C164.957 26.4604 164.017 26.6399 162.908 26.6399C161.509 26.6399 160.448 26.3886 159.724 25.886C159.025 25.3594 158.555 24.6054 158.314 23.6241C158.072 22.6188 157.952 21.2425 157.952 19.4952V8.36537H163.197V17.8796C163.197 19.3157 163.245 20.321 163.342 20.8955C163.438 21.446 163.619 21.805 163.884 21.9725C164.174 22.1162 164.68 22.188 165.404 22.188C166.151 22.188 166.682 22.0683 166.995 21.8289C167.309 21.5896 167.514 21.1707 167.61 20.5723C167.707 19.95 167.755 18.9447 167.755 17.5565V8.36537H173V24.5576C173 27.0229 172.831 28.8898 172.494 30.1584C172.18 31.427 171.457 32.3844 170.323 33.0306C169.19 33.6769 167.393 34 164.933 34Z" fill="#2F2E41"/>
</svg>
