<svg width="795" height="569" viewBox="0 0 795 569" fill="none" xmlns="http://www.w3.org/2000/svg">
<path d="M660.955 339.01L651.286 352.196C649.975 353.984 648.072 355.246 645.915 355.758C643.759 356.27 641.491 355.998 639.517 354.991V354.991C638.064 354.249 636.83 353.14 635.94 351.773C635.049 350.406 634.532 348.83 634.44 347.201C634.349 345.572 634.686 343.947 635.418 342.489C636.15 341.031 637.251 339.79 638.612 338.891L650.943 330.74L686.203 295.479L690.121 282.855H716.675L702.745 312.892L660.955 339.01Z" fill="#FFB8B8"/>
<path d="M370.3 338.246C369.072 338.248 367.895 338.736 367.027 339.604C366.159 340.472 365.671 341.649 365.669 342.877V562.363C365.671 563.591 366.159 564.768 367.027 565.636C367.895 566.504 369.072 566.992 370.3 566.994H666.653C667.881 566.992 669.058 566.504 669.926 565.636C670.794 564.768 671.282 563.591 671.284 562.363V342.877C671.282 341.649 670.794 340.472 669.926 339.604C669.058 338.736 667.881 338.248 666.653 338.246H370.3Z" fill="#E6E6E6"/>
<path d="M378.541 554.467H658.412V350.773H378.541V554.467Z" fill="white"/>
<path d="M618.959 409.093H450.408C448.811 409.093 447.28 409.727 446.151 410.856C445.022 411.985 444.388 413.516 444.388 415.113C444.388 416.709 445.022 418.241 446.151 419.369C447.28 420.498 448.811 421.133 450.408 421.133H618.959C620.555 421.133 622.086 420.498 623.215 419.369C624.344 418.241 624.978 416.709 624.978 415.113C624.978 413.516 624.344 411.985 623.215 410.856C622.086 409.727 620.555 409.093 618.959 409.093Z" fill="#E6E6E6"/>
<path d="M450.408 446.137C448.811 446.137 447.28 446.772 446.151 447.9C445.022 449.029 444.388 450.561 444.388 452.157C444.388 453.754 445.022 455.285 446.151 456.414C447.28 457.543 448.811 458.177 450.408 458.177H618.959C620.555 458.177 622.086 457.543 623.215 456.414C624.344 455.285 624.978 453.754 624.978 452.157C624.978 450.561 624.344 449.029 623.215 447.9C622.086 446.772 620.555 446.137 618.959 446.137H450.408Z" fill="#E6E6E6"/>
<path d="M450.408 483.182C448.813 483.184 447.284 483.819 446.156 484.947C445.029 486.076 444.396 487.606 444.396 489.201C444.396 490.796 445.029 492.326 446.156 493.455C447.284 494.584 448.813 495.219 450.408 495.221H618.959C620.554 495.219 622.083 494.584 623.21 493.455C624.337 492.326 624.971 490.796 624.971 489.201C624.971 487.606 624.337 486.076 623.21 484.947C622.083 483.819 620.554 483.184 618.959 483.182H450.408Z" fill="#E6E6E6"/>
<path d="M418.457 422.985C422.549 422.985 425.866 419.668 425.866 415.576C425.866 411.484 422.549 408.167 418.457 408.167C414.365 408.167 411.048 411.484 411.048 415.576C411.048 419.668 414.365 422.985 418.457 422.985Z" fill="#6C63FF"/>
<path d="M418.457 460.029C422.549 460.029 425.866 456.712 425.866 452.62C425.866 448.528 422.549 445.211 418.457 445.211C414.365 445.211 411.048 448.528 411.048 452.62C411.048 456.712 414.365 460.029 418.457 460.029Z" fill="#E6E6E6"/>
<path d="M418.457 497.073C422.549 497.073 425.866 493.756 425.866 489.664C425.866 485.572 422.549 482.255 418.457 482.255C414.365 482.255 411.048 485.572 411.048 489.664C411.048 493.756 414.365 497.073 418.457 497.073Z" fill="#E6E6E6"/>
<path d="M551.816 415.113C551.816 416.709 551.182 418.241 550.053 419.369C548.924 420.498 547.393 421.133 545.796 421.133H450.625C449.138 421.154 447.693 420.638 446.557 419.679C445.42 418.72 444.669 417.382 444.44 415.913C444.328 415.063 444.399 414.198 444.647 413.377C444.895 412.556 445.316 411.798 445.881 411.152C446.445 410.507 447.141 409.99 447.922 409.634C448.703 409.279 449.55 409.095 450.408 409.093H545.796C546.587 409.093 547.37 409.249 548.1 409.551C548.83 409.854 549.494 410.297 550.053 410.856C550.612 411.415 551.055 412.079 551.358 412.809C551.66 413.54 551.816 414.322 551.816 415.113V415.113Z" fill="#6C63FF"/>
<path d="M518.476 312.315C531.775 312.315 542.555 301.535 542.555 288.237C542.555 274.938 531.775 264.158 518.476 264.158C505.178 264.158 494.398 274.938 494.398 288.237C494.398 301.535 505.178 312.315 518.476 312.315Z" fill="#E6E6E6"/>
<path d="M518.476 300.276C525.125 300.276 530.516 294.886 530.516 288.237C530.516 281.588 525.125 276.197 518.476 276.197C511.827 276.197 506.437 281.588 506.437 288.237C506.437 294.886 511.827 300.276 518.476 300.276Z" fill="white"/>
<path d="M787.196 530.548L775.007 536.207L756.486 501.013C745.051 483.496 737.588 462.504 732.347 439.568L751.5 440.874C762.903 457.149 771.353 473.467 774.076 489.868L787.196 530.548Z" fill="#FFB8B8"/>
<path d="M755.418 445.227H731.041V403.001L750.63 399.519L755.418 445.227Z" fill="#2F2E41"/>
<path d="M724.091 285.941C712.214 283.677 700.063 283.219 688.049 284.583L695.094 249.446C695.77 246.078 697.483 243.006 699.993 240.661C702.503 238.317 705.685 236.817 709.091 236.373V236.373C711.561 236.051 714.073 236.295 716.435 237.085C718.797 237.876 720.949 239.193 722.728 240.937C724.507 242.681 725.867 244.806 726.704 247.153C727.541 249.499 727.834 252.005 727.561 254.481L724.091 285.941Z" fill="#6C63FF"/>
<path d="M706.881 213.858C718.18 213.858 727.341 204.698 727.341 193.398C727.341 182.099 718.18 172.939 706.881 172.939C695.581 172.939 686.421 182.099 686.421 193.398C686.421 204.698 695.581 213.858 706.881 213.858Z" fill="#FFB8B8"/>
<path d="M738.441 217.123L711.452 236.277L704.269 202.105L724.511 194.051C725.331 203.01 730.17 210.636 738.441 217.123Z" fill="#FFB8B8"/>
<path d="M727.341 191.222C725.827 188.103 723.933 190.267 722.25 194.071L719.836 184.415L716.939 183.449L715.008 175.724C706.15 173.609 699.041 178.034 689.904 182.951L686.421 191.222C685.03 188.382 684.299 185.264 684.282 182.102C684.265 178.94 684.963 175.815 686.323 172.96C687.682 170.105 689.67 167.595 692.136 165.615C694.602 163.636 697.484 162.24 700.565 161.53C702.082 161.19 703.63 161.01 705.183 160.995V160.995C708.14 160.964 711.072 161.532 713.803 162.663C716.535 163.795 719.01 165.467 721.078 167.579C723.147 169.691 724.767 172.2 725.841 174.954C726.916 177.709 727.422 180.652 727.33 183.607L727.341 191.222Z" fill="#2F2E41"/>
<path d="M790.73 547.241L749.082 560.825C747.67 561.127 746.197 560.937 744.908 560.288C743.618 559.638 742.589 558.567 741.992 557.252V557.252C741.376 555.895 741.258 554.364 741.66 552.928C742.061 551.493 742.956 550.244 744.187 549.403C752.401 543.78 758.947 537.781 761.948 530.983C764.723 519.711 767.86 519.685 771.267 528.095C780.678 533.662 779.158 529.204 785.019 522.277L794.056 539.381C794.437 540.104 794.653 540.902 794.688 541.718C794.723 542.534 794.576 543.348 794.258 544.1C793.94 544.853 793.458 545.525 792.848 546.068C792.238 546.611 791.514 547.012 790.73 547.241V547.241Z" fill="#2F2E41"/>
<path d="M692.298 557.102L678.368 551.008L683.361 515.321L693.169 445.227L719.723 448.709C719.151 473.05 713.104 496.949 702.031 518.633L692.298 557.102Z" fill="#FFB8B8"/>
<path d="M737.57 456.109L691.427 446.968L703.616 382.977L701.439 365.564H761.948C759.741 388.107 749.212 421.39 737.57 456.109Z" fill="#2F2E41"/>
<path d="M764.125 371.659C741.789 366.005 719.819 365.205 698.392 371.659C694.384 330.358 693.282 290.975 696.789 254.635C697.624 245.835 701.876 237.713 708.632 232.013L734.088 210.593L752.99 220.044C755.43 221.264 757.491 223.128 758.949 225.434C760.407 227.74 761.208 230.4 761.264 233.128C765.391 288.071 768.555 340.355 764.125 371.659Z" fill="#6C63FF"/>
<path d="M786.325 364.694L790.131 378.013C790.527 379.399 790.624 380.853 790.416 382.279C790.208 383.705 789.7 385.07 788.924 386.285C788.149 387.5 787.125 388.537 785.919 389.326C784.713 390.116 783.354 390.64 781.93 390.865V390.865C780.366 391.112 778.766 390.991 777.258 390.511C775.749 390.031 774.373 389.206 773.239 388.102C772.105 386.997 771.244 385.643 770.725 384.147C770.206 382.652 770.043 381.055 770.249 379.486L771.96 366.435L762.819 300.268L750.63 274.149L775.007 263.266L785.02 295.914L786.325 364.694Z" fill="#FFB8B8"/>
<path d="M687.857 568.175L645.197 558.213C643.833 557.74 642.672 556.814 641.906 555.59C641.139 554.366 640.814 552.917 640.985 551.484V551.484C641.161 550.003 641.854 548.633 642.941 547.613C644.029 546.593 645.441 545.989 646.929 545.908C656.868 545.354 665.575 543.615 671.664 539.356C679.878 531.153 682.574 532.756 681.131 541.715C686.296 551.353 687.306 546.752 695.908 543.864L694.774 563.176C694.726 563.991 694.497 564.786 694.104 565.502C693.712 566.218 693.164 566.838 692.502 567.317C691.84 567.795 691.08 568.121 690.276 568.269C689.473 568.417 688.647 568.385 687.857 568.175Z" fill="#2F2E41"/>
<path d="M778.925 266.313C768.618 267.163 757.373 273.134 745.841 280.679L736.996 245.951C736.148 242.622 736.364 239.111 737.613 235.912C738.862 232.712 741.082 229.984 743.961 228.11V228.11C746.049 226.751 748.418 225.885 750.89 225.576C753.362 225.267 755.872 225.523 758.23 226.326C760.589 227.129 762.734 228.458 764.503 230.211C766.273 231.964 767.621 234.097 768.446 236.448L778.925 266.313Z" fill="#6C63FF"/>
<path d="M4.58899 74.7999C3.37235 74.8013 2.20594 75.2852 1.34564 76.1455C0.485344 77.0058 0.00141593 78.1722 0 79.3888V296.905C0.00141593 298.122 0.485344 299.288 1.34564 300.148C2.20594 301.009 3.37235 301.493 4.58899 301.494H298.282C299.498 301.492 300.665 301.009 301.525 300.148C302.385 299.288 302.869 298.122 302.871 296.905V79.3888C302.869 78.1722 302.385 77.0058 301.525 76.1455C300.665 75.2852 299.498 74.8012 298.282 74.7998L4.58899 74.7999Z" fill="#E6E6E6"/>
<path d="M11.4998 289.994H291.37V86.2998H11.4998V289.994Z" fill="white"/>
<path d="M39.0062 182.425C37.424 182.425 35.9066 183.054 34.7878 184.172C33.6691 185.291 33.0405 186.808 33.0405 188.391C33.0405 189.973 33.6691 191.49 34.7878 192.609C35.9066 193.728 37.424 194.356 39.0062 194.356H263.865C265.447 194.356 266.964 193.728 268.083 192.609C269.202 191.49 269.83 189.973 269.83 188.391C269.83 186.808 269.202 185.291 268.083 184.172C266.964 183.054 265.447 182.425 263.865 182.425H39.0062Z" fill="#E6E6E6"/>
<path d="M39.0062 219.137C37.424 219.137 35.9066 219.765 34.7878 220.884C33.6691 222.003 33.0405 223.52 33.0405 225.102C33.0405 226.684 33.6691 228.202 34.7878 229.321C35.9066 230.439 37.424 231.068 39.0062 231.068H263.865C265.447 231.068 266.964 230.439 268.083 229.321C269.202 228.202 269.83 226.684 269.83 225.102C269.83 223.52 269.202 222.003 268.083 220.884C266.964 219.765 265.447 219.137 263.865 219.137H39.0062Z" fill="#E6E6E6"/>
<path d="M139.504 257.684C137.922 257.684 136.404 258.312 135.286 259.431C134.167 260.55 133.538 262.067 133.538 263.649C133.538 265.232 134.167 266.749 135.286 267.868C136.404 268.987 137.922 269.615 139.504 269.615H163.366C164.949 269.615 166.466 268.987 167.585 267.868C168.704 266.749 169.332 265.232 169.332 263.649C169.332 262.067 168.704 260.55 167.585 259.431C166.466 258.312 164.949 257.684 163.366 257.684H139.504Z" fill="#6C63FF"/>
<path d="M119.46 106.675C118.973 106.675 118.506 106.869 118.162 107.213C117.818 107.557 117.625 108.024 117.624 108.51V155.106C117.625 155.593 117.818 156.06 118.162 156.404C118.506 156.748 118.973 156.942 119.46 156.942H183.411C183.898 156.942 184.364 156.748 184.708 156.404C185.052 156.06 185.246 155.593 185.246 155.106V108.51C185.246 108.024 185.052 107.557 184.708 107.213C184.364 106.869 183.898 106.675 183.411 106.675H119.46Z" fill="#6C63FF"/>
<path d="M151.435 136.751C157.011 136.751 161.531 132.231 161.531 126.655C161.531 121.079 157.011 116.559 151.435 116.559C145.86 116.559 141.34 121.079 141.34 126.655C141.34 132.231 145.86 136.751 151.435 136.751Z" fill="white"/>
<path d="M167.955 152.353C167.959 153.949 167.581 155.522 166.854 156.942H136.016C135.231 155.403 134.853 153.688 134.92 151.961C134.987 150.234 135.496 148.553 136.399 147.079C137.301 145.606 138.567 144.388 140.075 143.544C141.583 142.7 143.282 142.257 145.011 142.257H157.86C159.186 142.257 160.499 142.517 161.724 143.024C162.949 143.531 164.063 144.275 165 145.213C165.938 146.15 166.681 147.264 167.188 148.489C167.696 149.714 167.956 151.027 167.955 152.353V152.353Z" fill="white"/>
<path d="M151.435 136.751C157.011 136.751 161.531 132.231 161.531 126.655C161.531 121.079 157.011 116.559 151.435 116.559C145.86 116.559 141.34 121.079 141.34 126.655C141.34 132.231 145.86 136.751 151.435 136.751Z" fill="white"/>
<path d="M167.955 152.353C167.959 153.949 167.581 155.522 166.854 156.942H136.016C135.231 155.403 134.853 153.688 134.92 151.961C134.987 150.234 135.496 148.553 136.399 147.079C137.301 145.606 138.567 144.388 140.075 143.544C141.583 142.7 143.282 142.257 145.011 142.257H157.86C159.186 142.257 160.499 142.517 161.724 143.024C162.949 143.531 164.063 144.275 165 145.213C165.938 146.15 166.681 147.264 167.188 148.489C167.696 149.714 167.956 151.027 167.955 152.353V152.353Z" fill="white"/>
<path d="M151.435 47.7251C164.614 47.7251 175.298 37.0414 175.298 23.8625C175.298 10.6836 164.614 0 151.435 0C138.256 0 127.573 10.6836 127.573 23.8625C127.573 37.0414 138.256 47.7251 151.435 47.7251Z" fill="#E6E6E6"/>
<path d="M151.435 35.7938C158.025 35.7938 163.366 30.452 163.366 23.8625C163.366 17.2731 158.025 11.9313 151.435 11.9313C144.846 11.9313 139.504 17.2731 139.504 23.8625C139.504 30.452 144.846 35.7938 151.435 35.7938Z" fill="#6C63FF"/>
</svg>
