<svg width="231" height="46" viewBox="0 0 231 46" fill="none" xmlns="http://www.w3.org/2000/svg">
<path d="M10.424 45.792C9.048 45.792 7.624 45.728 6.152 45.6C4.712 45.504 3.544 45.376 2.648 45.216V40.176C4.056 40.24 6.072 40.272 8.696 40.272C10.552 40.272 11.848 40.144 12.584 39.888C13.32 39.664 13.784 39.184 13.976 38.448C14.2 37.744 14.312 36.48 14.312 34.656V32.928H13.928C13.384 34.016 12.616 34.784 11.624 35.232C10.664 35.68 9.48 35.904 8.072 35.904C6.248 35.904 4.824 35.536 3.8 34.8C2.776 34.064 2.04 32.816 1.592 31.056C1.144 29.264 0.92 26.768 0.92 23.568C0.92 20.304 1.144 17.776 1.592 15.984C2.072 14.192 2.824 12.944 3.848 12.24C4.872 11.504 6.28 11.136 8.072 11.136C11.112 11.136 13.112 12.24 14.072 14.448H14.456L14.648 11.52H21.272V33.12C21.272 36.416 21.048 38.912 20.6 40.608C20.184 42.304 19.208 43.584 17.672 44.448C16.136 45.344 13.72 45.792 10.424 45.792ZM11.096 30.048C11.928 30.048 12.552 29.936 12.968 29.712C13.384 29.488 13.688 29.072 13.88 28.464C14.072 27.984 14.184 27.376 14.216 26.64C14.28 25.904 14.312 24.88 14.312 23.568C14.312 22.352 14.28 21.392 14.216 20.688C14.184 19.952 14.088 19.36 13.928 18.912C13.736 18.208 13.432 17.728 13.016 17.472C12.6 17.216 11.96 17.088 11.096 17.088C10.008 17.088 9.256 17.216 8.84 17.472C8.456 17.696 8.2 18.224 8.072 19.056C7.944 19.888 7.88 21.392 7.88 23.568C7.88 25.712 7.944 27.2 8.072 28.032C8.2 28.864 8.472 29.408 8.888 29.664C9.304 29.92 10.04 30.048 11.096 30.048ZM31.7158 36.384C29.5078 36.384 27.8918 35.808 26.8678 34.656C25.8758 33.472 25.3798 31.584 25.3798 28.992C25.3798 27.104 25.5878 25.616 26.0038 24.528C26.4198 23.44 27.1238 22.656 28.1158 22.176C29.1398 21.696 30.5798 21.456 32.4358 21.456C33.8118 21.456 35.7478 21.52 38.2438 21.648V20.64C38.2438 19.328 38.1158 18.416 37.8598 17.904C37.6358 17.36 37.1878 17.024 36.5157 16.896C35.8438 16.736 34.6758 16.656 33.0118 16.656C30.7398 16.656 28.6438 16.768 26.7238 16.992V11.904C29.4438 11.392 32.2758 11.136 35.2198 11.136C38.0998 11.136 40.2438 11.472 41.6518 12.144C43.0918 12.816 44.0358 13.84 44.4838 15.216C44.9638 16.56 45.2038 18.528 45.2038 21.12V36H38.5798L38.3878 33.12H38.0038C37.3638 34.368 36.4998 35.232 35.4118 35.712C34.3558 36.16 33.1238 36.384 31.7158 36.384ZM34.9318 30.96C35.6678 30.96 36.2438 30.88 36.6598 30.72C37.1078 30.56 37.4598 30.272 37.7158 29.856C38.0678 29.216 38.2438 28.128 38.2438 26.592V25.536H34.5478C33.8118 25.536 33.2678 25.6 32.9158 25.728C32.5958 25.856 32.3718 26.128 32.2438 26.544C32.1158 26.928 32.0518 27.536 32.0518 28.368C32.0518 29.104 32.1158 29.648 32.2438 30C32.3718 30.352 32.6278 30.608 33.0118 30.768C33.4278 30.896 34.0678 30.96 34.9318 30.96ZM56.8689 36.384C55.0769 36.384 53.6689 36.016 52.6449 35.28C51.6209 34.544 50.8689 33.28 50.3889 31.488C49.9409 29.696 49.7169 27.136 49.7169 23.808C49.7169 20.544 49.9409 18 50.3889 16.176C50.8369 14.352 51.5569 13.056 52.5489 12.288C53.5729 11.52 54.9809 11.136 56.7729 11.136C58.2129 11.136 59.4129 11.36 60.3729 11.808C61.3649 12.256 62.1489 13.024 62.7249 14.112H63.1089V0.335999H70.0689V36H63.4929L63.3009 33.072H62.8689C62.3569 34.32 61.5729 35.184 60.5169 35.664C59.4609 36.144 58.2449 36.384 56.8689 36.384ZM59.9409 30.432C60.7729 30.432 61.3969 30.32 61.8129 30.096C62.2289 29.872 62.5329 29.44 62.7249 28.8C62.8849 28.256 62.9809 27.6 63.0129 26.832C63.0769 26.064 63.1089 25.04 63.1089 23.76C63.1089 21.424 62.9969 19.872 62.7729 19.104C62.6129 18.304 62.3089 17.776 61.8609 17.52C61.4449 17.232 60.8049 17.088 59.9409 17.088C58.8529 17.088 58.1009 17.216 57.6849 17.472C57.2689 17.728 56.9969 18.288 56.8689 19.152C56.7409 20.016 56.6769 21.552 56.6769 23.76C56.6769 25.968 56.7409 27.504 56.8689 28.368C56.9969 29.232 57.2689 29.792 57.6849 30.048C58.1009 30.304 58.8529 30.432 59.9409 30.432ZM84.0646 45.792C82.6886 45.792 81.2646 45.728 79.7926 45.6C78.3526 45.504 77.1846 45.376 76.2886 45.216V40.176C77.6966 40.24 79.7126 40.272 82.3366 40.272C84.1926 40.272 85.4886 40.144 86.2246 39.888C86.9606 39.664 87.4246 39.184 87.6166 38.448C87.8406 37.744 87.9526 36.48 87.9526 34.656V32.928H87.5686C87.0246 34.016 86.2566 34.784 85.2646 35.232C84.3046 35.68 83.1206 35.904 81.7126 35.904C79.8886 35.904 78.4646 35.536 77.4406 34.8C76.4166 34.064 75.6806 32.816 75.2326 31.056C74.7846 29.264 74.5606 26.768 74.5606 23.568C74.5606 20.304 74.7846 17.776 75.2326 15.984C75.7126 14.192 76.4646 12.944 77.4886 12.24C78.5126 11.504 79.9206 11.136 81.7126 11.136C84.7526 11.136 86.7526 12.24 87.7126 14.448H88.0966L88.2886 11.52H94.9126V33.12C94.9126 36.416 94.6886 38.912 94.2406 40.608C93.8246 42.304 92.8486 43.584 91.3126 44.448C89.7766 45.344 87.3606 45.792 84.0646 45.792ZM84.7366 30.048C85.5686 30.048 86.1926 29.936 86.6086 29.712C87.0246 29.488 87.3286 29.072 87.5206 28.464C87.7126 27.984 87.8246 27.376 87.8566 26.64C87.9206 25.904 87.9526 24.88 87.9526 23.568C87.9526 22.352 87.9206 21.392 87.8566 20.688C87.8246 19.952 87.7286 19.36 87.5686 18.912C87.3766 18.208 87.0726 17.728 86.6566 17.472C86.2406 17.216 85.6006 17.088 84.7366 17.088C83.6486 17.088 82.8966 17.216 82.4806 17.472C82.0966 17.696 81.8406 18.224 81.7126 19.056C81.5846 19.888 81.5206 21.392 81.5206 23.568C81.5206 25.712 81.5846 27.2 81.7126 28.032C81.8406 28.864 82.1126 29.408 82.5286 29.664C82.9446 29.92 83.6806 30.048 84.7366 30.048ZM119.228 25.68H106.316C106.316 27.408 106.412 28.608 106.604 29.28C106.796 29.92 107.244 30.352 107.948 30.576C108.684 30.8 109.964 30.912 111.788 30.912C113.164 30.912 115.388 30.784 118.46 30.528V35.616C117.5 35.84 116.236 36.016 114.668 36.144C113.132 36.304 111.628 36.384 110.156 36.384C106.86 36.384 104.444 35.968 102.908 35.136C101.404 34.304 100.444 33.056 100.028 31.392C99.6124 29.728 99.4044 27.2 99.4044 23.808C99.4044 20.48 99.6124 17.968 100.028 16.272C100.444 14.576 101.372 13.296 102.812 12.432C104.252 11.568 106.524 11.136 109.628 11.136C112.7 11.136 114.908 11.552 116.252 12.384C117.596 13.184 118.428 14.4 118.748 16.032C119.068 17.664 119.228 20.256 119.228 23.808V25.68ZM109.532 16.464C108.54 16.464 107.82 16.576 107.372 16.8C106.956 17.024 106.668 17.488 106.508 18.192C106.38 18.864 106.316 20 106.316 21.6H112.652C112.652 19.968 112.572 18.816 112.412 18.144C112.252 17.44 111.964 16.992 111.548 16.8C111.132 16.576 110.46 16.464 109.532 16.464ZM125.577 36V17.04H121.785V11.52H125.577V4.416H132.585V11.52H137.241V17.04H132.585V36H125.577ZM148.925 36.384C147.549 36.384 146.061 36.32 144.461 36.192C142.861 36.064 141.485 35.888 140.333 35.664V30.576C142.445 30.832 144.653 30.96 146.957 30.96C148.205 30.96 149.101 30.912 149.645 30.816C150.221 30.688 150.589 30.48 150.749 30.192C150.941 29.904 151.037 29.44 151.037 28.8C151.037 28.16 150.989 27.712 150.893 27.456C150.797 27.2 150.605 27.024 150.317 26.928C150.029 26.8 149.517 26.688 148.781 26.592L143.885 25.92C142.253 25.696 141.133 25.024 140.525 23.904C139.949 22.784 139.661 21.008 139.661 18.576C139.661 16.592 140.029 15.056 140.765 13.968C141.533 12.88 142.573 12.144 143.885 11.76C145.197 11.344 146.845 11.136 148.829 11.136C150.109 11.136 151.469 11.216 152.909 11.376C154.349 11.504 155.501 11.68 156.365 11.904V16.944C153.677 16.688 151.629 16.56 150.221 16.56C149.101 16.56 148.269 16.608 147.725 16.704C147.213 16.8 146.845 16.992 146.621 17.28C146.429 17.536 146.333 17.968 146.333 18.576C146.333 19.184 146.365 19.616 146.429 19.872C146.525 20.096 146.685 20.272 146.909 20.4C147.165 20.496 147.613 20.592 148.253 20.688L152.909 21.312C153.965 21.472 154.813 21.744 155.453 22.128C156.125 22.512 156.653 23.2 157.037 24.192C157.421 25.184 157.613 26.624 157.613 28.512C157.613 30.688 157.261 32.352 156.557 33.504C155.885 34.624 154.925 35.392 153.677 35.808C152.461 36.192 150.877 36.384 148.925 36.384ZM175.012 36.384C173.604 36.384 172.372 36.144 171.316 35.664C170.26 35.184 169.476 34.32 168.964 33.072H168.58L168.388 36H161.764V0.335999H168.724V14.112H169.108C169.684 13.024 170.452 12.256 171.412 11.808C172.404 11.36 173.62 11.136 175.06 11.136C176.852 11.136 178.244 11.52 179.236 12.288C180.26 13.056 180.996 14.352 181.444 16.176C181.924 18 182.164 20.544 182.164 23.808C182.164 27.104 181.924 29.664 181.444 31.488C180.996 33.28 180.26 34.544 179.236 35.28C178.212 36.016 176.804 36.384 175.012 36.384ZM171.94 30.432C173.028 30.432 173.78 30.304 174.196 30.048C174.612 29.792 174.884 29.232 175.012 28.368C175.14 27.504 175.204 25.968 175.204 23.76C175.204 21.552 175.14 20.016 175.012 19.152C174.884 18.288 174.612 17.728 174.196 17.472C173.78 17.216 173.028 17.088 171.94 17.088C171.172 17.088 170.58 17.184 170.164 17.376C169.78 17.568 169.476 17.92 169.252 18.432C169.06 18.912 168.916 19.568 168.82 20.4C168.756 21.232 168.724 22.352 168.724 23.76C168.724 26.352 168.884 28.096 169.204 28.992C169.396 29.536 169.7 29.92 170.116 30.144C170.532 30.336 171.14 30.432 171.94 30.432ZM191.888 36.384C189.68 36.384 188.064 35.808 187.04 34.656C186.048 33.472 185.552 31.584 185.552 28.992C185.552 27.104 185.76 25.616 186.176 24.528C186.592 23.44 187.296 22.656 188.288 22.176C189.312 21.696 190.752 21.456 192.608 21.456C193.984 21.456 195.92 21.52 198.416 21.648V20.64C198.416 19.328 198.288 18.416 198.032 17.904C197.808 17.36 197.36 17.024 196.688 16.896C196.016 16.736 194.848 16.656 193.184 16.656C190.912 16.656 188.816 16.768 186.896 16.992V11.904C189.616 11.392 192.448 11.136 195.392 11.136C198.272 11.136 200.416 11.472 201.824 12.144C203.264 12.816 204.208 13.84 204.656 15.216C205.136 16.56 205.376 18.528 205.376 21.12V36H198.752L198.56 33.12H198.176C197.536 34.368 196.672 35.232 195.584 35.712C194.528 36.16 193.296 36.384 191.888 36.384ZM195.104 30.96C195.84 30.96 196.416 30.88 196.832 30.72C197.28 30.56 197.632 30.272 197.888 29.856C198.24 29.216 198.416 28.128 198.416 26.592V25.536H194.72C193.984 25.536 193.44 25.6 193.088 25.728C192.768 25.856 192.544 26.128 192.416 26.544C192.288 26.928 192.224 27.536 192.224 28.368C192.224 29.104 192.288 29.648 192.416 30C192.544 30.352 192.8 30.608 193.184 30.768C193.6 30.896 194.24 30.96 195.104 30.96ZM219.777 45.792C216.609 45.792 214.049 45.616 212.097 45.264V40.224C213.665 40.256 215.681 40.272 218.145 40.272C219.937 40.272 221.185 40.144 221.889 39.888C222.625 39.664 223.073 39.2 223.233 38.496C223.425 37.792 223.521 36.544 223.521 34.752V32.736H223.185C222.641 33.888 221.857 34.72 220.833 35.232C219.809 35.712 218.561 35.952 217.089 35.952C215.233 35.952 213.825 35.616 212.865 34.944C211.937 34.24 211.313 33.232 210.993 31.92C210.673 30.576 210.513 28.736 210.513 26.4V11.52H217.473V24.24C217.473 26.16 217.537 27.504 217.665 28.272C217.793 29.008 218.033 29.488 218.385 29.712C218.769 29.904 219.441 30 220.401 30C221.393 30 222.097 29.84 222.513 29.52C222.929 29.2 223.201 28.64 223.329 27.84C223.457 27.008 223.521 25.664 223.521 23.808V11.52H230.481V33.168C230.481 36.464 230.257 38.96 229.809 40.656C229.393 42.352 228.433 43.632 226.929 44.496C225.425 45.36 223.041 45.792 219.777 45.792Z" fill="black"/>
</svg>
