<svg width="862" height="640" viewBox="0 0 862 640" fill="none" xmlns="http://www.w3.org/2000/svg">
<path d="M136.959 85.5258H9.83055C4.40129 85.5258 0 89.9271 0 95.3563V343.027C0 348.457 4.40129 352.858 9.83055 352.858H136.959C142.389 352.858 146.79 348.457 146.79 343.027V95.3563C146.79 89.9271 142.389 85.5258 136.959 85.5258Z" fill="url(#paint0_linear)"/>
<path d="M133.578 89.9201H13.2123C7.783 89.9201 3.38171 94.3214 3.38171 99.7506V336.814C3.38171 342.244 7.783 346.645 13.2123 346.645H133.578C139.007 346.645 143.408 342.244 143.408 336.814V99.7506C143.408 94.3214 139.007 89.9201 133.578 89.9201Z" fill="white"/>
<path d="M127.998 107.588L19.5864 107.74L19.8781 316.658L128.289 316.507L127.998 107.588Z" fill="#E6E6E6"/>
<path d="M74.1073 340.49C78.8796 340.484 82.7428 336.513 82.7359 331.621C82.7291 326.729 78.8548 322.769 74.0825 322.776C69.3102 322.782 65.447 326.753 65.4538 331.645C65.4607 336.537 69.3349 340.497 74.1073 340.49Z" fill="#DBDBDB"/>
<path d="M57.3639 99.7048C58.3195 99.7034 59.093 98.9101 59.0917 97.9329C59.0903 96.9556 58.3145 96.1644 57.359 96.1658C56.4035 96.1671 55.6299 96.9604 55.6313 97.9377C55.6326 98.915 56.4084 99.7061 57.3639 99.7048Z" fill="#DBDBDB"/>
<path d="M90.9504 96.5612L66.1185 96.5959C65.5756 96.5967 65.1361 97.0374 65.1368 97.5803L65.1378 98.2685C65.1385 98.8114 65.5793 99.2509 66.1222 99.2502L90.9541 99.2155C91.4971 99.2147 91.9366 98.774 91.9358 98.2311L91.9349 97.5429C91.9341 97 91.4934 96.5605 90.9504 96.5612Z" fill="#DBDBDB"/>
<path d="M104.627 228.816H43.2446V293.265H104.627V228.816Z" fill="url(#paint1_linear)"/>
<path d="M101.962 231.618H45.9185V290.463H101.962V231.618Z" fill="#6C63FF"/>
<g opacity="0.5">
<path opacity="0.5" d="M78.1823 258.288V257.177H81.1315V251.485C82.0248 250.129 82.5394 248.559 82.6221 246.937C82.7048 245.315 82.3526 243.7 81.6019 242.26C80.8512 240.82 79.7293 239.607 78.3522 238.746C76.9752 237.885 75.3931 237.407 73.7697 237.363C72.1463 237.319 70.5405 237.709 69.1186 238.494C67.6967 239.278 66.5102 240.429 65.682 241.825C64.8539 243.222 64.4141 244.815 64.4082 246.439C64.4022 248.063 64.8304 249.66 65.6484 251.063V257.177H68.9023V258.485C64.9168 259.584 61.4019 261.96 58.8964 265.248C56.3909 268.537 55.0332 272.556 55.0314 276.691V293.265H92.8692V276.691C92.8671 272.413 91.413 268.263 88.7448 264.92C86.0767 261.577 82.3527 259.239 78.1823 258.288V258.288Z" fill="url(#paint2_linear)"/>
</g>
<path d="M80.4729 246.747H66.4644V257.954H80.4729V246.747Z" fill="#F55F44"/>
<path d="M69.4921 258.544H78.3396C81.6925 258.544 84.908 259.875 87.2789 262.246C89.6497 264.617 90.9817 267.833 90.9817 271.186V290.63H56.85V271.166C56.8552 267.816 58.1894 264.606 60.5597 262.239C62.93 259.873 66.1426 258.544 69.4921 258.544V258.544Z" fill="#FDD835"/>
<path d="M74.6729 252.94H72.5003C70.7901 252.94 69.4037 254.327 69.4037 256.037V260.303C69.4037 262.013 70.7901 263.4 72.5003 263.4H74.6729C76.3831 263.4 77.7695 262.013 77.7695 260.303V256.037C77.7695 254.327 76.3831 252.94 74.6729 252.94Z" fill="#FDA57D"/>
<path d="M71.9891 263.085L73.5522 265.366L75.1939 263.085H71.9891Z" fill="#FDA57D"/>
<path opacity="0.1" d="M63.2793 271.323C63.2793 271.323 61.6179 287.858 62.6894 288.93Z" fill="black"/>
<path opacity="0.1" d="M83.8251 271.323C83.8251 271.323 85.4864 287.858 84.4149 288.93Z" fill="black"/>
<path opacity="0.05" d="M73.5915 258.023C75.0775 258.024 76.5248 257.548 77.7203 256.666C77.5638 255.683 77.0622 254.788 76.3056 254.141C75.549 253.494 74.5868 253.138 73.5915 253.137C72.5962 253.138 71.6339 253.494 70.8773 254.141C70.1207 254.788 69.6192 255.683 69.4626 256.666C70.6582 257.548 72.1055 258.024 73.5915 258.023Z" fill="black"/>
<path d="M73.5915 256.518C78.1466 256.518 81.8393 252.826 81.8393 248.271C81.8393 243.715 78.1466 240.023 73.5915 240.023C69.0363 240.023 65.3436 243.715 65.3436 248.271C65.3436 252.826 69.0363 256.518 73.5915 256.518Z" fill="#F55F44"/>
<path d="M73.5915 257.816C77.4408 257.816 80.5613 254.696 80.5613 250.846C80.5613 246.997 77.4408 243.876 73.5915 243.876C69.7421 243.876 66.6216 246.997 66.6216 250.846C66.6216 254.696 69.7421 257.816 73.5915 257.816Z" fill="#FDA57D"/>
<path d="M66.602 251.279C66.8735 251.279 67.0935 250.883 67.0935 250.394C67.0935 249.905 66.8735 249.509 66.602 249.509C66.3305 249.509 66.1105 249.905 66.1105 250.394C66.1105 250.883 66.3305 251.279 66.602 251.279Z" fill="#FDA57D"/>
<path d="M80.5909 251.279C80.8623 251.279 81.0824 250.883 81.0824 250.394C81.0824 249.905 80.8623 249.509 80.5909 249.509C80.3194 249.509 80.0993 249.905 80.0993 250.394C80.0993 250.883 80.3194 251.279 80.5909 251.279Z" fill="#FDA57D"/>
<path d="M121.24 121.171H26.6309V125.281H121.24V121.171Z" fill="white"/>
<path d="M121.24 129.39H26.6309V133.499H121.24V129.39Z" fill="white"/>
<path d="M80.1091 137.618H26.6309V141.727H80.1091V137.618Z" fill="white"/>
<path d="M104.784 145.846H26.6309V149.955H104.784V145.846Z" fill="white"/>
<path d="M92.4465 154.074H26.6309V158.183H92.4465V154.074Z" fill="white"/>
<path d="M121.24 162.302H26.6309V166.412H121.24V162.302Z" fill="white"/>
<path d="M113.022 174.64H30.7499V207.543H113.022V174.64Z" fill="white"/>
<path d="M611.165 340.265C611.165 340.265 624.928 434.825 705.726 466.234L542.243 466.46L378.761 466.686C459.431 435.051 472.987 340.452 472.987 340.452L611.165 340.265Z" fill="#E0E0E0"/>
<path d="M707.183 466.214L377.133 466.675L377.161 486.651L707.211 486.19L707.183 466.214Z" fill="url(#paint3_linear)"/>
<path d="M705.748 466.216L378.784 466.673L378.806 482.087L705.77 481.63L705.748 466.216Z" fill="#F5F5F5"/>
<path d="M807.55 0L275.816 0.737292C272.923 0.806858 270.177 2.0224 268.18 4.1166C266.184 6.21081 265.101 9.01222 265.169 11.9048L265.582 322.137V332.469C265.582 356.063 283.896 375.124 306.428 375.095L777.911 374.446C800.433 374.446 818.669 355.286 818.639 331.712V321.39L818.226 11.1577C818.259 9.72381 818.009 8.29756 817.49 6.96053C816.97 5.62349 816.193 4.40189 815.201 3.3656C814.21 2.32931 813.024 1.49866 811.711 0.921164C810.398 0.343664 808.984 0.0306395 807.55 0V0Z" fill="url(#paint4_linear)"/>
<path d="M282.127 10.3909H800.679C803.482 10.3909 806.17 11.5043 808.151 13.4861C810.133 15.468 811.247 18.156 811.247 20.9587V316.19H271.549V20.9587C271.549 19.5701 271.823 18.1951 272.355 16.9123C272.886 15.6295 273.666 14.4641 274.648 13.4827C275.63 12.5012 276.797 11.723 278.08 11.1925C279.363 10.662 280.738 10.3896 282.127 10.3909V10.3909Z" fill="white"/>
<path d="M774.294 365.264L309.938 365.903C304.991 365.91 300.091 364.942 295.518 363.054C290.945 361.167 286.789 358.398 283.286 354.904C279.783 351.411 277.003 347.262 275.104 342.694C273.205 338.126 272.224 333.229 272.218 328.282V315.502L811.915 314.755V327.534C811.923 332.482 810.956 337.383 809.069 341.957C807.183 346.531 804.414 350.689 800.92 354.192C797.426 357.696 793.277 360.477 788.708 362.377C784.139 364.277 779.241 365.258 774.294 365.264V365.264Z" fill="#F5F5F5"/>
<path d="M786.602 35.1639H298.21V282.029H786.602V35.1639Z" fill="#E6E6E6"/>
<path d="M744.556 51.4433H658.106V142.219H744.556V51.4433Z" fill="url(#paint5_linear)"/>
<path d="M740.801 55.3952H661.862V138.277H740.801V55.3952Z" fill="#6C63FF"/>
<g opacity="0.5">
<path opacity="0.5" d="M706.728 92.2499L705.745 91.896L705.686 91.9845H705.627V89.3106C705.627 88.9813 705.601 88.6526 705.549 88.3275C707.141 87.1556 708.36 85.5474 709.058 83.6974C710.435 81.9127 711.284 79.778 711.509 77.5353C711.735 75.2926 711.327 73.0316 710.333 71.0087C709.339 68.9859 707.797 67.2821 705.884 66.0906C703.971 64.899 701.762 64.2675 699.508 64.2675C697.254 64.2675 695.045 64.899 693.131 66.0906C691.218 67.2821 689.677 68.9859 688.683 71.0087C687.688 73.0316 687.281 75.2926 687.506 77.5353C687.731 79.778 688.581 81.9127 689.957 83.6974C690.655 85.5474 691.874 87.1556 693.467 88.3275C693.414 88.6526 693.388 88.9813 693.388 89.3106V92.2598C688.113 93.7161 683.461 96.8625 680.146 101.217C676.831 105.571 675.035 110.892 675.035 116.364V138.296H724.974V116.335C724.976 110.88 723.194 105.574 719.9 101.225C716.606 96.8772 711.98 93.7252 706.728 92.2499V92.2499Z" fill="url(#paint6_linear)"/>
</g>
<path d="M698.49 91.7092H701.538C707.516 91.7092 713.25 94.0841 717.477 98.3115C721.704 102.539 724.079 108.272 724.079 114.251V136.861H675.91V114.251C675.91 111.287 676.494 108.353 677.629 105.615C678.764 102.878 680.428 100.391 682.526 98.2976C684.623 96.2039 687.113 94.5443 689.852 93.4138C692.591 92.2833 695.527 91.7041 698.49 91.7092V91.7092Z" fill="#514ABF"/>
<path d="M699.896 83.8546H699.159C696.107 83.8546 693.634 86.3281 693.634 89.3794V93.0658C693.634 96.1171 696.107 98.5906 699.159 98.5906H699.896C702.947 98.5906 705.421 96.1171 705.421 93.0658V89.3794C705.421 86.3281 702.947 83.8546 699.896 83.8546Z" fill="#FDA57D"/>
<path opacity="0.05" d="M689.544 94.3143L693.496 102.788L697.419 98.8659L693.496 92.8398L689.544 94.3143Z" fill="black"/>
<path d="M689.682 93.9014L693.614 102.375L697.547 98.4432L693.614 92.4268L691.806 92.9774C691.628 93.0322 691.454 93.0978 691.285 93.174L689.682 93.9014Z" fill="white"/>
<path opacity="0.05" d="M709.52 93.9014L705.558 102.788L701.626 98.8659L705.667 92.5252L709.52 93.9014Z" fill="black"/>
<path d="M709.383 93.4886L705.45 102.336L701.518 98.4038L705.558 92.0631L706.296 92.2794C707.096 92.5079 707.881 92.787 708.645 93.115L709.383 93.4886Z" fill="white"/>
<path d="M697.261 98.1384L699.464 101.343L701.784 98.1384H697.261Z" fill="#FDA57D"/>
<path opacity="0.1" d="M684.993 109.748C684.993 109.748 682.653 133.037 684.167 134.551Z" fill="black"/>
<path opacity="0.1" d="M713.934 109.748C713.934 109.748 716.274 133.037 714.76 134.551Z" fill="black"/>
<path opacity="0.05" d="M699.522 91.0014C701.616 91.0016 703.655 90.3335 705.342 89.0943C705.12 87.7103 704.413 86.4505 703.346 85.5408C702.28 84.6311 700.924 84.1309 699.522 84.1299V84.1299C698.121 84.1309 696.765 84.6311 695.699 85.5408C694.632 86.4505 693.925 87.7103 693.703 89.0943C695.39 90.3335 697.429 91.0016 699.522 91.0014V91.0014Z" fill="black"/>
<path d="M699.522 88.878C705.934 88.878 711.132 83.6801 711.132 77.2682C711.132 70.8562 705.934 65.6583 699.522 65.6583C693.111 65.6583 687.913 70.8562 687.913 77.2682C687.913 83.6801 693.111 88.878 699.522 88.878Z" fill="black"/>
<path d="M699.522 90.7262C704.946 90.7262 709.343 86.3293 709.343 80.9054C709.343 75.4816 704.946 71.0847 699.522 71.0847C694.099 71.0847 689.702 75.4816 689.702 80.9054C689.702 86.3293 694.099 90.7262 699.522 90.7262Z" fill="#FDA57D"/>
<path opacity="0.05" d="M691.609 71.1732L694.086 74.201C694.086 74.201 704.969 75.1841 706.207 72.6871C707.446 70.1901 699.041 68.4108 699.041 68.4108L691.609 71.1732Z" fill="black"/>
<path d="M691.609 70.8979L694.086 73.9258C694.086 73.9258 704.969 74.9088 706.207 72.4119C707.446 69.9149 699.041 68.1356 699.041 68.1356L691.609 70.8979Z" fill="black"/>
<path d="M689.682 81.5051C690.062 81.5051 690.37 80.9505 690.37 80.2664C690.37 79.5824 690.062 79.0278 689.682 79.0278C689.302 79.0278 688.994 79.5824 688.994 80.2664C688.994 80.9505 689.302 81.5051 689.682 81.5051Z" fill="#FDA57D"/>
<path d="M709.382 81.5051C709.763 81.5051 710.071 80.9505 710.071 80.2664C710.071 79.5824 709.763 79.0278 709.382 79.0278C709.002 79.0278 708.694 79.5824 708.694 80.2664C708.694 80.9505 709.002 81.5051 709.382 81.5051Z" fill="#FDA57D"/>
<path d="M745.058 160.336H658.608V251.112H745.058V160.336Z" fill="url(#paint7_linear)"/>
<path d="M741.302 164.278H662.363V247.16H741.302V164.278Z" fill="#6C63FF"/>
<g opacity="0.5">
<path opacity="0.5" d="M707.8 201.625V198.577C707.8 198.43 707.8 198.272 707.8 198.125C709.472 196.873 710.748 195.167 711.476 193.21C712.686 191.642 713.515 189.815 713.901 187.873C714.286 185.93 714.216 183.925 713.697 182.014C713.179 180.103 712.224 178.338 710.909 176.858C709.595 175.377 707.955 174.221 706.119 173.48C706.259 172.856 706.261 172.21 706.124 171.585C705.987 170.961 705.715 170.375 705.326 169.867C704.938 169.36 704.443 168.944 703.876 168.649C703.309 168.354 702.684 168.187 702.045 168.16C701.407 168.133 700.77 168.246 700.181 168.492C699.591 168.738 699.062 169.111 698.632 169.584C698.202 170.056 697.881 170.618 697.692 171.228C697.502 171.838 697.45 172.483 697.537 173.116C695.555 173.726 693.751 174.807 692.278 176.266C690.806 177.726 689.709 179.521 689.082 181.497C688.455 183.473 688.316 185.572 688.677 187.613C689.038 189.655 689.889 191.579 691.157 193.22C691.885 195.177 693.161 196.883 694.833 198.135C694.833 198.282 694.833 198.43 694.833 198.587V201.811C689.344 202.864 684.393 205.794 680.828 210.099C677.264 214.404 675.31 219.816 675.3 225.405V251.269H728.483V225.444C728.482 219.649 726.389 214.048 722.589 209.673C718.789 205.297 713.538 202.439 707.8 201.625V201.625Z" fill="url(#paint8_linear)"/>
</g>
<path d="M700.309 202.175H703.356C706.317 202.175 709.248 202.758 711.983 203.891C714.717 205.024 717.202 206.684 719.296 208.777C721.389 210.871 723.049 213.356 724.182 216.09C725.315 218.825 725.898 221.756 725.898 224.717V247.327H677.728V224.717C677.728 218.738 680.103 213.005 684.33 208.777C688.558 204.55 694.291 202.175 700.27 202.175H700.309Z" fill="white"/>
<path d="M701.705 194.321H700.967C697.916 194.321 695.443 196.794 695.443 199.845V203.532C695.443 206.583 697.916 209.057 700.967 209.057H701.705C704.756 209.057 707.23 206.583 707.23 203.532V199.845C707.23 196.794 704.756 194.321 701.705 194.321Z" fill="#FDB797"/>
<path d="M699.08 208.604L701.282 211.809L703.592 208.604H699.08Z" fill="#FDB797"/>
<path opacity="0.1" d="M686.811 220.204C686.811 220.204 684.472 243.493 685.986 245.007Z" fill="black"/>
<path opacity="0.1" d="M715.753 220.204C715.753 220.204 718.092 243.493 716.579 245.007Z" fill="black"/>
<path opacity="0.05" d="M701.38 201.467C703.474 201.468 705.513 200.799 707.2 199.56C706.978 198.176 706.271 196.916 705.204 196.007C704.138 195.097 702.782 194.597 701.38 194.596V194.596C699.965 194.578 698.591 195.07 697.508 195.981C696.425 196.892 695.706 198.163 695.482 199.56C697.191 200.815 699.26 201.484 701.38 201.467V201.467Z" fill="black"/>
<path d="M701.341 199.344C707.753 199.344 712.951 194.146 712.951 187.734C712.951 181.322 707.753 176.124 701.341 176.124C694.929 176.124 689.731 181.322 689.731 187.734C689.731 194.146 694.929 199.344 701.341 199.344Z" fill="#FDD835"/>
<path d="M701.341 201.192C706.765 201.192 711.162 196.795 711.162 191.371C711.162 185.948 706.765 181.551 701.341 181.551C695.917 181.551 691.52 185.948 691.52 191.371C691.52 196.795 695.917 201.192 701.341 201.192Z" fill="#FDB797"/>
<path d="M691.491 191.971C691.871 191.971 692.179 191.416 692.179 190.732C692.179 190.048 691.871 189.494 691.491 189.494C691.111 189.494 690.803 190.048 690.803 190.732C690.803 191.416 691.111 191.971 691.491 191.971Z" fill="#FDB797"/>
<path d="M711.201 191.971C711.581 191.971 711.889 191.416 711.889 190.732C711.889 190.048 711.581 189.494 711.201 189.494C710.821 189.494 710.513 190.048 710.513 190.732C710.513 191.416 710.821 191.971 711.201 191.971Z" fill="#FDB797"/>
<path d="M701.833 180.066C704.01 180.066 705.775 178.301 705.775 176.124C705.775 173.947 704.01 172.182 701.833 172.182C699.655 172.182 697.891 173.947 697.891 176.124C697.891 178.301 699.655 180.066 701.833 180.066Z" fill="#FDD835"/>
<path d="M693.939 180.066C693.939 180.066 697.871 187.931 709.727 183.998L705.794 180.066H693.939Z" fill="#FDD835"/>
<path d="M554.659 66.14H337.424V75.5871H554.659V66.14Z" fill="white"/>
<path d="M554.659 85.0245H337.424V94.4716H554.659V85.0245Z" fill="white"/>
<path d="M460.207 103.919H337.424V113.366H460.207V103.919Z" fill="white"/>
<path d="M516.881 122.803H337.424V132.25H516.881V122.803Z" fill="white"/>
<path d="M488.539 141.698H337.424V151.145H488.539V141.698Z" fill="white"/>
<path d="M554.659 160.582H337.424V170.029H554.659V160.582Z" fill="white"/>
<path d="M535.765 188.924H346.871V264.481H535.765V188.924Z" fill="white"/>
<path d="M334.75 217.284L96.0443 217.617C86.7223 217.63 79.1758 225.197 79.1889 234.519L79.7314 623.121C79.7445 632.443 87.312 639.989 96.634 639.976L335.339 639.643C344.661 639.63 352.208 632.062 352.195 622.74L351.652 234.139C351.639 224.817 344.072 217.271 334.75 217.284Z" fill="url(#paint9_linear)"/>
<path d="M333.576 249.549L98.2816 249.878L98.7762 604.121L334.07 603.793L333.576 249.549Z" fill="url(#paint10_linear)"/>
<path d="M330.885 223.669L99.9265 223.991C93.0422 224.001 87.4692 229.59 87.4788 236.474L88.0065 614.449C88.0161 621.333 93.6047 626.906 100.489 626.896L331.448 626.574C338.332 626.564 343.905 620.976 343.896 614.091L343.368 236.117C343.358 229.232 337.77 223.659 330.885 223.669Z" fill="white"/>
<path d="M326.396 254.465L105.416 254.773L105.887 592.708L326.868 592.399L326.396 254.465Z" fill="#E6E6E6"/>
<path d="M215.899 619.276C220.926 619.276 225.002 615.099 225.002 609.947C225.002 604.794 220.926 600.617 215.899 600.617C210.871 600.617 206.796 604.794 206.796 609.947C206.796 615.099 210.871 619.276 215.899 619.276Z" fill="#DBDBDB"/>
<path d="M177.654 243.161C179.332 243.159 180.69 241.766 180.687 240.05C180.685 238.335 179.323 236.946 177.645 236.948C175.968 236.951 174.61 238.343 174.612 240.059C174.614 241.775 175.976 243.163 177.654 243.161Z" fill="#DBDBDB"/>
<path d="M231.538 238.112L193.573 238.165C193.16 238.165 192.826 238.5 192.827 238.913L192.829 240.525C192.829 240.938 193.164 241.272 193.577 241.271L231.543 241.218C231.955 241.217 232.289 240.882 232.289 240.47L232.286 238.858C232.286 238.445 231.951 238.111 231.538 238.112Z" fill="#DBDBDB"/>
<path d="M301.257 462.822H214.807V553.598H301.257V462.822Z" fill="url(#paint11_linear)"/>
<path d="M297.502 466.774H218.563V549.656H297.502V466.774Z" fill="#6C63FF"/>
<g opacity="0.5">
<path opacity="0.5" d="M264.747 503.639L263.763 503.285L263.705 503.373H263.646V500.7C263.646 500.37 263.619 500.042 263.567 499.717C265.159 498.545 266.378 496.936 267.076 495.086C268.453 493.302 269.302 491.167 269.528 488.924C269.753 486.682 269.345 484.421 268.351 482.398C267.357 480.375 265.816 478.671 263.902 477.48C261.989 476.288 259.78 475.656 257.526 475.656C255.272 475.656 253.063 476.288 251.15 477.48C249.236 478.671 247.695 480.375 246.701 482.398C245.707 484.421 245.299 486.682 245.524 488.924C245.75 491.167 246.599 493.302 247.976 495.086C248.674 496.936 249.893 498.545 251.485 499.717C251.433 500.042 251.406 500.37 251.406 500.7V503.649C246.131 505.105 241.479 508.252 238.164 512.606C234.849 516.96 233.053 522.281 233.053 527.753V549.685H283.041V527.714C283.038 522.254 281.248 516.946 277.944 512.598C274.641 508.251 270.006 505.105 264.747 503.639V503.639Z" fill="url(#paint12_linear)"/>
</g>
<path d="M256.509 503.088H259.556C265.534 503.088 271.268 505.463 275.495 509.691C279.723 513.918 282.097 519.652 282.097 525.63V548.24H233.928V525.63C233.928 522.666 234.512 519.732 235.647 516.995C236.783 514.257 238.447 511.77 240.544 509.677C242.641 507.583 245.131 505.924 247.87 504.793C250.61 503.663 253.545 503.083 256.509 503.088V503.088Z" fill="#3AD29F"/>
<path d="M257.914 495.234H257.177C254.126 495.234 251.652 497.707 251.652 500.759V504.445C251.652 507.496 254.126 509.97 257.177 509.97H257.914C260.966 509.97 263.439 507.496 263.439 504.445V500.759C263.439 497.707 260.966 495.234 257.914 495.234Z" fill="#BE7C5E"/>
<path d="M255.28 509.518L257.482 512.722L259.802 509.518H255.28Z" fill="#BE7C5E"/>
<path opacity="0.1" d="M243.011 521.128C243.011 521.128 240.672 544.416 242.185 545.93Z" fill="black"/>
<path opacity="0.1" d="M271.952 521.128C271.952 521.128 274.292 544.416 272.778 545.93Z" fill="black"/>
<path opacity="0.05" d="M257.541 502.341C259.634 502.341 261.673 501.673 263.36 500.434C263.138 499.05 262.431 497.79 261.364 496.881C260.298 495.971 258.943 495.471 257.541 495.47V495.47C256.139 495.471 254.783 495.971 253.717 496.881C252.651 497.79 251.943 499.05 251.721 500.434C253.408 501.673 255.447 502.341 257.541 502.341V502.341Z" fill="black"/>
<path d="M257.541 500.257C263.953 500.257 269.151 495.059 269.151 488.647C269.151 482.235 263.953 477.037 257.541 477.037C251.129 477.037 245.931 482.235 245.931 488.647C245.931 495.059 251.129 500.257 257.541 500.257Z" fill="#444444"/>
<path d="M257.541 502.105C262.965 502.105 267.362 497.708 267.362 492.285C267.362 486.861 262.965 482.464 257.541 482.464C252.117 482.464 247.72 486.861 247.72 492.285C247.72 497.708 252.117 502.105 257.541 502.105Z" fill="#BE7C5E"/>
<path opacity="0.05" d="M249.627 482.552L252.104 485.58C252.104 485.58 262.987 486.563 264.226 484.066C265.464 481.569 257.059 479.79 257.059 479.79L249.627 482.552Z" fill="black"/>
<path d="M249.627 482.277L252.104 485.305C252.104 485.305 262.987 486.288 264.226 483.791C265.464 481.294 257.059 479.515 257.059 479.515L249.627 482.277Z" fill="#444444"/>
<path d="M247.7 492.884C248.08 492.884 248.389 492.33 248.389 491.646C248.389 490.962 248.08 490.407 247.7 490.407C247.32 490.407 247.012 490.962 247.012 491.646C247.012 492.33 247.32 492.884 247.7 492.884Z" fill="#BE7C5E"/>
<path d="M267.401 492.884C267.781 492.884 268.089 492.33 268.089 491.646C268.089 490.962 267.781 490.407 267.401 490.407C267.021 490.407 266.713 490.962 266.713 491.646C266.713 492.33 267.021 492.884 267.401 492.884Z" fill="#BE7C5E"/>
<path d="M249.863 477.853C250.632 476.872 251.692 476.16 252.891 475.818C255.063 474.953 257.325 474.069 259.654 474.226C259.881 474.223 260.104 474.288 260.293 474.413C260.449 474.579 260.579 474.767 260.677 474.973C261.385 476.025 263.37 475.956 263.626 477.195C263.695 477.598 263.528 478.03 263.626 478.424C263.881 479.407 265.268 479.308 266.084 479.869C266.518 480.261 266.782 480.807 266.819 481.392C266.855 481.976 266.662 482.551 266.28 482.995C265.471 483.853 264.423 484.449 263.272 484.705C261.252 485.48 259.056 485.674 256.931 485.266C253.953 484.489 246.983 482.562 249.863 477.853Z" fill="#444444"/>
<path d="M212.782 461.839H126.332V552.615H212.782V461.839Z" fill="url(#paint13_linear)"/>
<path d="M209.027 465.791H130.088V548.673H209.027V465.791Z" fill="#6C63FF"/>
<g opacity="0.5">
<path opacity="0.5" d="M176.272 502.656L175.289 502.302L175.23 502.39H175.171V499.717C175.171 499.387 175.144 499.059 175.092 498.734C176.685 497.562 177.904 495.953 178.601 494.103C179.978 492.319 180.827 490.184 181.053 487.941C181.278 485.698 180.871 483.438 179.876 481.415C178.882 479.392 177.341 477.688 175.427 476.496C173.514 475.305 171.305 474.673 169.051 474.673C166.797 474.673 164.588 475.305 162.675 476.496C160.762 477.688 159.22 479.392 158.226 481.415C157.232 483.438 156.824 485.698 157.049 487.941C157.275 490.184 158.124 492.319 159.501 494.103C160.199 495.953 161.418 497.562 163.01 498.734C162.958 499.059 162.932 499.387 162.932 499.717V502.666C157.656 504.122 153.005 507.268 149.689 511.622C146.374 515.977 144.579 521.298 144.578 526.77V548.702H194.566V526.731C194.563 521.271 192.773 515.962 189.469 511.615C186.166 507.268 181.531 504.122 176.272 502.656Z" fill="url(#paint14_linear)"/>
</g>
<path d="M168.034 502.105H171.081C174.041 502.105 176.972 502.688 179.707 503.821C182.442 504.954 184.927 506.614 187.02 508.707C189.113 510.801 190.774 513.286 191.907 516.02C193.039 518.755 193.623 521.687 193.623 524.647V547.257H145.453V524.647C145.453 521.683 146.037 518.749 147.172 516.011C148.308 513.274 149.972 510.787 152.069 508.694C154.166 506.6 156.656 504.94 159.395 503.81C162.135 502.679 165.07 502.1 168.034 502.105V502.105Z" fill="#514ABF"/>
<path d="M169.439 494.251H168.702C165.651 494.251 163.177 496.724 163.177 499.775V503.462C163.177 506.513 165.651 508.987 168.702 508.987H169.439C172.491 508.987 174.964 506.513 174.964 503.462V499.775C174.964 496.724 172.491 494.251 169.439 494.251Z" fill="#FDA57D"/>
<path opacity="0.1" d="M154.536 520.144C154.536 520.144 152.197 543.433 153.711 544.947Z" fill="black"/>
<path opacity="0.1" d="M183.477 520.144C183.477 520.144 185.817 543.433 184.303 544.947Z" fill="black"/>
<path opacity="0.05" d="M169.066 501.358C171.159 501.358 173.198 500.69 174.886 499.451C174.664 498.067 173.956 496.807 172.89 495.898C171.823 494.988 170.468 494.488 169.066 494.487V494.487C167.664 494.488 166.309 494.988 165.242 495.898C164.176 496.807 163.468 498.067 163.246 499.451C164.933 500.69 166.972 501.358 169.066 501.358V501.358Z" fill="black"/>
<path d="M169.066 499.274C175.478 499.274 180.676 494.076 180.676 487.664C180.676 481.252 175.478 476.054 169.066 476.054C162.654 476.054 157.456 481.252 157.456 487.664C157.456 494.076 162.654 499.274 169.066 499.274Z" fill="#444444"/>
<path d="M169.066 501.122C174.49 501.122 178.887 496.725 178.887 491.302C178.887 485.878 174.49 481.481 169.066 481.481C163.642 481.481 159.245 485.878 159.245 491.302C159.245 496.725 163.642 501.122 169.066 501.122Z" fill="#FDA57D"/>
<path opacity="0.05" d="M161.152 481.569L163.63 484.597C163.63 484.597 174.512 485.58 175.751 483.083C176.989 480.586 168.584 478.807 168.584 478.807L161.152 481.569Z" fill="black"/>
<path d="M161.152 481.294L163.63 484.322C163.63 484.322 174.512 485.305 175.751 482.808C176.989 480.311 168.584 478.532 168.584 478.532L161.152 481.294Z" fill="#444444"/>
<path d="M159.225 491.901C159.606 491.901 159.914 491.347 159.914 490.663C159.914 489.978 159.606 489.424 159.225 489.424C158.845 489.424 158.537 489.978 158.537 490.663C158.537 491.347 158.845 491.901 159.225 491.901Z" fill="#FDA57D"/>
<path d="M178.926 491.901C179.306 491.901 179.614 491.347 179.614 490.663C179.614 489.978 179.306 489.424 178.926 489.424C178.546 489.424 178.238 489.978 178.238 490.663C178.238 491.347 178.546 491.901 178.926 491.901Z" fill="#FDA57D"/>
<path d="M290.198 297.699H129.635V304.678H290.198V297.699Z" fill="white"/>
<path d="M290.198 311.658H129.635V318.638H290.198V311.658Z" fill="white"/>
<path d="M220.391 325.617H129.635V332.597H220.391V325.617Z" fill="white"/>
<path d="M262.279 339.587H129.635V346.566H262.279V339.587Z" fill="white"/>
<path d="M241.33 353.546H129.635V360.526H241.33V353.546Z" fill="white"/>
<path d="M290.198 367.505H129.635V374.485H290.198V367.505Z" fill="white"/>
<path d="M276.239 388.454H136.615V444.302H276.239V388.454Z" fill="white"/>
<path d="M162.243 487.595C162.739 486.719 163.15 485.797 163.472 484.843C163.994 483.713 164.818 482.748 165.853 482.057C166.889 481.366 168.095 480.974 169.339 480.925C170.583 480.876 171.816 481.172 172.903 481.78C173.989 482.388 174.886 483.285 175.495 484.371C176.301 485.816 176.567 487.527 177.461 488.922C177.588 489.018 177.733 489.086 177.888 489.122C178.042 489.158 178.202 489.162 178.358 489.133C178.515 489.105 178.663 489.044 178.794 488.955C178.926 488.867 179.038 488.752 179.122 488.618C179.278 488.334 179.368 488.019 179.387 487.696C179.406 487.373 179.352 487.05 179.231 486.75C179.024 486.14 178.68 485.58 178.454 484.98C178.228 484.004 177.899 483.055 177.471 482.149C176.945 481.463 176.274 480.903 175.505 480.508C173.332 479.171 170.816 477.784 168.358 478.541C167.529 478.825 166.744 479.226 166.028 479.731L162.902 481.697C161.897 482.26 160.998 482.995 160.248 483.87C159.57 484.754 158.282 487.399 158.881 488.539C159.589 489.837 161.624 488.411 162.243 487.595Z" fill="#444444"/>
<path d="M166.598 508.24V547.296H172.369L171.514 508.24H166.598Z" fill="white"/>
<path d="M165.635 507.709L168.977 512.575L172.497 507.709H165.635Z" fill="#FDA57D"/>
<path d="M783.634 498.239L789.265 511.271L837.347 493.432L829.037 474.198L783.634 498.239Z" fill="#FFB8B8"/>
<path d="M789.192 542.191L771.498 501.235L785.791 493.667L797.172 520.008C798.847 523.884 799.062 528.338 797.77 532.389C796.479 536.441 793.786 539.758 790.285 541.612L789.192 542.191V542.191Z" fill="#2F2E41"/>
<path d="M772.3 614.614L785.341 614.126L785.889 557.929L770.603 558.928L772.3 614.614Z" fill="#FFB8B8"/>
<path d="M810.645 627.363H769.635V609.822H796.012C799.893 609.822 803.615 611.529 806.359 614.567C809.103 617.605 810.645 621.725 810.645 626.022V627.363V627.363Z" fill="#2F2E41"/>
<path d="M773.373 606.171C772.279 606.171 771.217 605.765 770.357 605.019C769.496 604.272 768.886 603.227 768.625 602.051C761.481 570.276 734.899 410.171 758.405 378.727L758.61 378.452L758.921 378.365C760.572 377.903 791.678 367.241 809.93 383.883L810.143 384.078L820.301 416.63L847.685 461.631C849.184 464.095 850.222 466.868 850.735 469.784C851.249 472.701 851.229 475.702 850.676 478.609C850.123 481.517 849.049 484.272 847.516 486.712C845.984 489.151 844.024 491.225 841.754 492.811L805.796 517.932C804.928 518.512 803.918 518.782 802.906 518.703C801.894 518.624 800.928 518.2 800.142 517.491C799.481 516.885 798.973 516.101 798.667 515.215L791.11 494.3C790.659 493.032 790.652 491.624 791.089 490.35C791.527 489.076 792.377 488.029 793.475 487.413L810.322 478.088C810.784 477.806 811.184 477.416 811.494 476.946C811.805 476.475 812.019 475.935 812.121 475.363C812.167 474.846 812.099 474.324 811.923 473.842C811.747 473.36 811.468 472.932 811.11 472.596L791.554 453.932C791.119 453.517 790.584 453.252 790.015 453.168C789.446 453.085 788.867 453.187 788.35 453.463C787.832 453.739 787.399 454.176 787.102 454.72C786.806 455.264 786.66 455.893 786.682 456.528L791.53 598.21C791.575 599.54 791.178 600.843 790.414 601.871C789.65 602.899 788.572 603.582 787.385 603.79L774.158 606.102C773.899 606.148 773.636 606.171 773.373 606.171Z" fill="#2F2E41"/>
<path d="M807.108 389.658C806.997 389.658 806.886 389.654 806.775 389.644L758.005 385.645C757.328 385.591 756.672 385.364 756.086 384.984C755.501 384.603 755.003 384.078 754.631 383.449C754.259 382.821 754.023 382.106 753.941 381.36C753.859 380.614 753.933 379.857 754.158 379.149C757.158 369.573 757.526 359.228 755.215 349.422C752.039 335.556 751.964 309.776 752.202 295.643C752.256 293.247 753.124 290.962 754.632 289.243C756.141 287.524 758.18 286.498 760.342 286.37L760.342 286.351L761.325 286.364C769.27 286.487 783.849 287.115 795.78 289.863C799.801 290.784 803.418 293.194 806.037 296.694C808.656 300.195 810.12 304.578 810.189 309.123C810.459 322.244 810.499 340.005 809.154 350.101C808.019 358.618 810.115 374.974 811.466 383.966C811.57 384.666 811.536 385.383 811.365 386.068C811.194 386.752 810.891 387.387 810.476 387.928C810.062 388.47 809.546 388.905 808.964 389.204C808.383 389.502 807.749 389.658 807.108 389.658H807.108Z" fill="#3F3D56"/>
<path d="M824.519 441.126C823.219 440.437 822.072 439.441 821.158 438.209C820.244 436.976 819.586 435.537 819.229 433.992C818.871 432.447 818.825 430.834 819.092 429.266C819.358 427.699 819.932 426.216 820.773 424.921L798.248 317.39H815.278L835.157 422.802C837.028 424.509 838.269 426.918 838.644 429.571C839.018 432.223 838.501 434.936 837.19 437.195C835.879 439.454 833.864 441.101 831.529 441.826C829.194 442.55 826.699 442.301 824.519 441.126H824.519Z" fill="#FFB8B8"/>
<path d="M800.043 324.28C799.209 324.283 798.392 324.024 797.687 323.531C796.981 323.039 796.417 322.335 796.06 321.502C793.911 316.479 792.432 311.139 791.668 305.647C790.498 296.676 796.133 291.339 801.863 290.176C807.437 289.045 814.226 291.758 815.962 300.386C816.107 301.117 816.22 301.855 816.298 302.598C816.993 309.139 817.647 314.225 818.242 317.718C818.358 318.405 818.341 319.112 818.19 319.79C818.039 320.469 817.759 321.104 817.368 321.653C816.977 322.201 816.484 322.651 815.923 322.971C815.362 323.291 814.745 323.474 814.115 323.508L800.269 324.274C800.193 324.278 800.118 324.28 800.043 324.28Z" fill="#3F3D56"/>
<path d="M780.734 277.108C797.02 277.108 810.222 262.492 810.222 244.463C810.222 226.433 797.02 211.818 780.734 211.818C764.448 211.818 751.246 226.433 751.246 244.463C751.246 262.492 764.448 277.108 780.734 277.108Z" fill="#2F2E41"/>
<path d="M780.912 279.663C794.245 279.663 805.054 267.697 805.054 252.937C805.054 238.176 794.245 226.21 780.912 226.21C767.579 226.21 756.77 238.176 756.77 252.937C756.77 267.697 767.579 279.663 780.912 279.663Z" fill="#FFB8B8"/>
<path d="M738.062 311.274C737.446 310.652 737.002 309.849 736.782 308.959C736.563 308.069 736.576 307.127 736.822 306.245C738.303 300.936 740.472 295.892 743.26 291.272C747.873 283.783 755.284 284.063 760.218 287.492C765.018 290.828 768.367 297.906 764.381 305.565C764.042 306.212 763.675 306.84 763.279 307.447C759.8 312.788 757.177 317.028 755.484 320.048C755.151 320.642 754.707 321.149 754.181 321.537C753.656 321.924 753.062 322.183 752.439 322.295C751.816 322.407 751.178 322.37 750.569 322.186C749.96 322.002 749.394 321.676 748.908 321.229L738.233 311.438C738.175 311.384 738.118 311.33 738.062 311.274Z" fill="#3F3D56"/>
<path d="M775.006 215.308C769.072 211.388 767.787 201.628 771.323 195.055C774.858 188.483 782.002 185.054 788.909 184.828C798.775 184.505 808.303 189.943 815.208 197.75C822.114 205.557 826.671 215.55 830.144 225.778C833.616 236.006 836.109 246.614 839.53 256.863C841.286 262.122 843.448 267.522 847.465 270.938C851.482 274.353 857.867 274.969 861.301 270.847C861.288 277.443 856.721 283.438 851.056 285.48C845.391 287.522 838.983 285.98 834.016 282.337C825.401 276.016 821.241 264.479 818.864 253.344C816.486 242.209 815.315 230.541 810.535 220.396C808.554 216.193 805.84 212.201 802.021 210.056C798.202 207.911 793.114 208.052 790.042 211.355C788.619 212.885 787.698 214.971 786.083 216.246C785.061 216.953 783.907 217.393 782.708 217.531C781.51 217.669 780.298 217.502 779.167 217.043C776.913 216.105 774.804 214.787 772.913 213.137" fill="#2F2E41"/>
<path d="M755.699 234.878C758.026 238.342 760.961 241.247 764.33 243.421C767.698 245.594 771.428 246.991 775.297 247.525C779.166 248.06 783.092 247.722 786.839 246.531C790.587 245.341 794.078 243.323 797.102 240.599C799.446 238.488 801.623 235.578 801.476 232.237C801.325 228.814 798.798 226.126 796.218 224.233C789.431 219.294 781.267 217.218 773.213 218.382C768.618 219.065 764.009 220.919 760.755 224.576C757.501 228.232 755.879 233.918 757.558 238.703" fill="#2F2E41"/>
<path d="M794.298 377.658L802.402 369.554L788.404 355.556L766.302 377.658" fill="#78B75B"/>
<path d="M772.933 377.658C772.933 375.772 773.652 373.887 775.091 372.448C777.968 369.571 782.633 369.571 785.51 372.448C786.949 373.887 787.668 375.772 787.668 377.658" fill="#669E4F"/>
<path d="M785.33 378.699C785.33 377.913 785.024 377.172 784.467 376.615C783.354 375.502 781.412 375.502 780.3 376.615L778.216 374.531C778.791 373.957 779.725 373.958 780.3 374.532L781.341 373.489C780.193 372.341 778.324 372.341 777.174 373.489L776.653 372.968L775.611 374.011L776.133 374.532C775.576 375.089 775.27 375.828 775.27 376.616C775.269 377.403 775.576 378.143 776.133 378.7C776.69 379.256 777.43 379.563 778.217 379.563C779.004 379.563 779.743 379.256 780.3 378.7L782.384 380.784C781.808 381.358 780.875 381.358 780.3 380.784L779.259 381.826C779.832 382.4 780.588 382.687 781.342 382.687C782.096 382.687 782.851 382.4 783.426 381.826L783.946 382.347L784.989 381.304L784.467 380.783C785.024 380.226 785.33 379.486 785.33 378.699ZM779.257 377.658C778.702 378.214 777.73 378.214 777.174 377.658C776.896 377.379 776.742 377.009 776.743 376.616C776.743 376.222 776.896 375.853 777.174 375.574L779.257 377.658ZM781.342 377.657C781.898 377.101 782.869 377.101 783.425 377.657C783.703 377.935 783.857 378.305 783.857 378.699C783.857 379.092 783.703 379.462 783.426 379.74L781.342 377.657Z" fill="#78B75B"/>
<path d="M792.252 376.125L791.209 375.083L796.94 369.352L788.604 361.018L782.874 366.748L781.831 365.706L788.082 359.454C788.371 359.167 788.837 359.166 789.125 359.454L798.503 368.832C798.641 368.97 798.718 369.157 798.718 369.352C798.718 369.548 798.641 369.736 798.503 369.874L792.252 376.125Z" fill="#669E4F"/>
<path d="M789.143 372.988L790.185 371.944L791.228 372.986L790.186 374.029L789.143 372.988Z" fill="#96CC7F"/>
<path d="M791.205 370.924L792.247 369.882L793.29 370.925L792.248 371.967L791.205 370.924Z" fill="#96CC7F"/>
<path d="M783.933 367.789L784.976 366.747L786.017 367.79L784.974 368.832L783.933 367.789Z" fill="#96CC7F"/>
<path d="M785.997 365.713L787.039 364.671L788.081 365.714L787.039 366.756L785.997 365.713Z" fill="#96CC7F"/>
<path d="M758.198 377.658H802.402V396.813H758.198V377.658Z" fill="#96CC7F"/>
<path d="M780.3 394.603C784.369 394.603 787.668 391.304 787.668 387.235C787.668 383.166 784.369 379.868 780.3 379.868C776.231 379.868 772.933 383.166 772.933 387.235C772.933 391.304 776.231 394.603 780.3 394.603Z" fill="#78B75B"/>
<path d="M769.249 396.813L772.196 399.76L775.143 396.813" fill="#78B75B"/>
<path d="M781.037 386.498H781.036V383.552H781.037C781.849 383.552 782.509 384.212 782.509 385.025H783.983C783.983 383.4 782.661 382.078 781.037 382.078H781.036V381.341H779.563V382.078C777.938 382.078 776.616 383.4 776.616 385.025C776.616 386.65 777.938 387.971 779.563 387.971V390.918C778.749 390.918 778.089 390.257 778.089 389.445L776.616 389.445C776.616 391.07 777.938 392.392 779.563 392.392V393.128H781.036V392.392H781.037C782.661 392.392 783.983 391.07 783.983 389.445C783.983 387.819 782.661 386.498 781.037 386.498ZM778.089 385.025C778.089 384.212 778.749 383.552 779.563 383.552V386.498C778.75 386.498 778.089 385.837 778.089 385.025ZM781.037 390.918H781.036V387.971H781.037C781.849 387.971 782.509 388.632 782.509 389.445C782.509 390.257 781.849 390.918 781.037 390.918Z" fill="#669E4F"/>
<path d="M799.454 394.602H790.614V393.128H798.717V381.341H790.614V379.868H799.454C799.861 379.868 800.191 380.197 800.191 380.605V393.866C800.191 394.273 799.861 394.602 799.454 394.602Z" fill="#669E4F"/>
<path d="M769.985 394.603H761.145C760.738 394.603 760.408 394.273 760.408 393.866V380.605C760.408 380.197 760.738 379.868 761.144 379.868H769.985L769.986 381.341H761.882V393.129H769.985V394.603Z" fill="#669E4F"/>
<path d="M790.614 390.182H792.087V391.656H790.614V390.182Z" fill="#78B75B"/>
<path d="M793.561 390.182H795.034V391.656H793.561V390.182Z" fill="#78B75B"/>
<path d="M790.614 382.815H792.087V384.288H790.614V382.815Z" fill="#78B75B"/>
<path d="M793.561 382.815H795.034V384.288H793.561V382.815Z" fill="#78B75B"/>
<path d="M765.566 382.815H767.038V384.288H765.566V382.815Z" fill="#78B75B"/>
<path d="M768.513 382.815H769.985V384.288H768.513V382.815Z" fill="#78B75B"/>
<path d="M765.566 390.182H767.038V391.656H765.566V390.182Z" fill="#78B75B"/>
<path d="M768.513 390.182H769.985V391.656H768.513V390.182Z" fill="#78B75B"/>
<path d="M717.84 329.039L744.807 300.798L754.967 316.544L729.568 341.288L762.877 370.571C763.118 370.553 763.357 370.53 763.602 370.53C765.652 370.528 767.659 371.18 769.383 372.407C771.107 373.634 772.475 375.386 773.323 377.451C774.172 379.517 774.465 381.809 774.167 384.054C773.87 386.299 772.994 388.402 771.645 390.111C770.296 391.819 768.532 393.062 766.562 393.689C764.592 394.316 762.501 394.302 760.538 393.648C758.575 392.994 756.824 391.727 755.495 390.001C754.165 388.274 753.313 386.159 753.04 383.91L752.935 384.027L718.267 350.765C716.87 349.424 715.741 347.774 714.955 345.921C714.169 344.068 713.742 342.053 713.701 340.007C713.661 337.96 714.009 335.927 714.721 334.037C715.434 332.148 716.497 330.446 717.84 329.039V329.039Z" fill="#FFB8B8"/>
<defs>
<linearGradient id="paint0_linear" x1="73.4047" y1="354.572" x2="73.4047" y2="86.3852" gradientUnits="userSpaceOnUse">
<stop stop-color="#808080" stop-opacity="0.25"/>
<stop offset="0.54" stop-color="#808080" stop-opacity="0.12"/>
<stop offset="1" stop-color="#808080" stop-opacity="0.1"/>
</linearGradient>
<linearGradient id="paint1_linear" x1="9801.75" y1="26609.1" x2="9801.75" y2="22383.8" gradientUnits="userSpaceOnUse">
<stop stop-color="#808080" stop-opacity="0.25"/>
<stop offset="0.54" stop-color="#808080" stop-opacity="0.12"/>
<stop offset="1" stop-color="#808080" stop-opacity="0.1"/>
</linearGradient>
<linearGradient id="paint2_linear" x1="11434.7" y1="26978" x2="11434.7" y2="23798.7" gradientUnits="userSpaceOnUse">
<stop stop-color="#808080" stop-opacity="0.25"/>
<stop offset="0.54" stop-color="#808080" stop-opacity="0.12"/>
<stop offset="1" stop-color="#808080" stop-opacity="0.1"/>
</linearGradient>
<linearGradient id="paint3_linear" x1="256763" y1="13594.4" x2="256763" y2="13188.3" gradientUnits="userSpaceOnUse">
<stop stop-color="#808080" stop-opacity="0.25"/>
<stop offset="0.54" stop-color="#808080" stop-opacity="0.12"/>
<stop offset="1" stop-color="#808080" stop-opacity="0.1"/>
</linearGradient>
<linearGradient id="paint4_linear" x1="430236" y1="219199" x2="430236" y2="75787.6" gradientUnits="userSpaceOnUse">
<stop stop-color="#808080" stop-opacity="0.25"/>
<stop offset="0.54" stop-color="#808080" stop-opacity="0.12"/>
<stop offset="1" stop-color="#808080" stop-opacity="0.1"/>
</linearGradient>
<linearGradient id="paint5_linear" x1="69575.1" y1="23260" x2="69575.1" y2="14877.8" gradientUnits="userSpaceOnUse">
<stop stop-color="#808080" stop-opacity="0.25"/>
<stop offset="0.54" stop-color="#808080" stop-opacity="0.12"/>
<stop offset="1" stop-color="#808080" stop-opacity="0.1"/>
</linearGradient>
<linearGradient id="paint6_linear" x1="46229.1" y1="21015.9" x2="48768.5" y2="21015.9" gradientUnits="userSpaceOnUse">
<stop stop-color="#808080" stop-opacity="0.25"/>
<stop offset="0.54" stop-color="#808080" stop-opacity="0.12"/>
<stop offset="1" stop-color="#808080" stop-opacity="0.1"/>
</linearGradient>
<linearGradient id="paint7_linear" x1="69619.7" y1="33424" x2="69619.7" y2="25041.9" gradientUnits="userSpaceOnUse">
<stop stop-color="#808080" stop-opacity="0.25"/>
<stop offset="0.54" stop-color="#808080" stop-opacity="0.12"/>
<stop offset="1" stop-color="#808080" stop-opacity="0.1"/>
</linearGradient>
<linearGradient id="paint8_linear" x1="50638.9" y1="36375.5" x2="50638.9" y2="29351.6" gradientUnits="userSpaceOnUse">
<stop stop-color="#808080" stop-opacity="0.25"/>
<stop offset="0.54" stop-color="#808080" stop-opacity="0.12"/>
<stop offset="1" stop-color="#808080" stop-opacity="0.1"/>
</linearGradient>
<linearGradient id="paint9_linear" x1="121745" y1="357339" x2="121491" y2="175048" gradientUnits="userSpaceOnUse">
<stop stop-color="#808080" stop-opacity="0.25"/>
<stop offset="0.54" stop-color="#808080" stop-opacity="0.12"/>
<stop offset="1" stop-color="#808080" stop-opacity="0.1"/>
</linearGradient>
<linearGradient id="paint10_linear" x1="216.443" y1="607.554" x2="215.946" y2="251.68" gradientUnits="userSpaceOnUse">
<stop stop-opacity="0.09"/>
<stop offset="0.55" stop-opacity="0.07"/>
<stop offset="1" stop-opacity="0.02"/>
</linearGradient>
<linearGradient id="paint11_linear" x1="30148.1" y1="61658.1" x2="30148.1" y2="53275.9" gradientUnits="userSpaceOnUse">
<stop stop-color="#808080" stop-opacity="0.25"/>
<stop offset="0.54" stop-color="#808080" stop-opacity="0.12"/>
<stop offset="1" stop-color="#808080" stop-opacity="0.1"/>
</linearGradient>
<linearGradient id="paint12_linear" x1="23357.2" y1="52406.1" x2="25899.1" y2="52406.1" gradientUnits="userSpaceOnUse">
<stop stop-color="#808080" stop-opacity="0.25"/>
<stop offset="0.54" stop-color="#808080" stop-opacity="0.12"/>
<stop offset="1" stop-color="#808080" stop-opacity="0.1"/>
</linearGradient>
<linearGradient id="paint13_linear" x1="22279.1" y1="61566.4" x2="22279.1" y2="53184.2" gradientUnits="userSpaceOnUse">
<stop stop-color="#808080" stop-opacity="0.25"/>
<stop offset="0.54" stop-color="#808080" stop-opacity="0.12"/>
<stop offset="1" stop-color="#808080" stop-opacity="0.1"/>
</linearGradient>
<linearGradient id="paint14_linear" x1="18769.7" y1="52331.1" x2="21311.7" y2="52331.1" gradientUnits="userSpaceOnUse">
<stop stop-color="#808080" stop-opacity="0.25"/>
<stop offset="0.54" stop-color="#808080" stop-opacity="0.12"/>
<stop offset="1" stop-color="#808080" stop-opacity="0.1"/>
</linearGradient>
</defs>
</svg>
